<svg width="152" height="32" viewBox="0 0 152 32" fill="none" xmlns="http://www.w3.org/2000/svg">
<path d="M35.6684 16.819H4.28574C3.62823 16.819 3.09131 17.3763 3.1516 18.0342C3.8407 25.8488 11.1107 31.9999 19.9771 31.9999C28.8435 31.9999 36.1134 25.8517 36.8025 18.0342C36.86 17.3763 36.3259 16.819 35.6684 16.819Z" fill="#FF6633"/>
<path fill-rule="evenodd" clip-rule="evenodd" d="M0.225147 3.33137C1.7887 1.27854 4.60645 0 7.711 0C10.8155 0 13.6333 1.27854 15.1969 3.33137C15.5659 3.81589 15.4714 4.50716 14.9858 4.87537C14.5001 5.24357 13.8073 5.14928 13.4383 4.66476C12.3661 3.25707 10.2569 2.20377 7.711 2.20377C5.16509 2.20377 3.05591 3.25707 1.98374 4.66476C1.6147 5.14928 0.921857 5.24357 0.436236 4.87537C-0.0493858 4.50716 -0.143894 3.81589 0.225147 3.33137Z" fill="#414141"/>
<path fill-rule="evenodd" clip-rule="evenodd" d="M24.7671 3.33137C26.3307 1.27854 29.1484 0 32.253 0C35.3552 0 38.1721 1.27884 39.7381 3.33045C40.1077 3.81458 40.0139 4.50596 39.5287 4.87467C39.0434 5.24338 38.3505 5.14981 37.981 4.66568C36.9055 3.25676 34.7955 2.20377 32.253 2.20377C29.7071 2.20377 27.5979 3.25707 26.5257 4.66476C26.1567 5.14928 25.4638 5.24357 24.9782 4.87537C24.4926 4.50716 24.3981 3.81589 24.7671 3.33137Z" fill="#414141"/>
<path d="M57.953 18.2186C57.7478 18.37 57.503 18.4885 57.225 18.5872C56.947 18.6859 56.6955 18.732 56.4639 18.732C55.716 18.732 55.0741 18.4753 54.5512 17.9685C54.0284 17.4551 53.7703 16.8298 53.7703 16.0926C53.7703 15.3489 54.0284 14.7236 54.5512 14.2102C55.0741 13.6902 55.716 13.4335 56.4639 13.4335C56.6955 13.4335 56.9537 13.4862 57.2382 13.5849C57.5228 13.6836 57.7677 13.8153 57.9861 13.9798C58.1714 14.1114 58.3832 14.0917 58.4825 13.9535L59.4884 12.4857C59.5745 12.3606 59.5347 12.1632 59.3759 12.0513C58.9854 11.7683 58.5155 11.5379 57.9662 11.3602C57.4169 11.1759 56.9139 11.0837 56.4639 11.0837C55.7624 11.0837 55.0939 11.2154 54.4652 11.4787C53.8365 11.7354 53.3004 12.0908 52.8438 12.5384C52.3937 12.9793 52.0363 13.5125 51.7716 14.1312C51.5069 14.7499 51.3745 15.4015 51.3745 16.0926C51.3745 16.7837 51.5069 17.4353 51.7716 18.054C52.0363 18.6727 52.3937 19.2059 52.8438 19.6469C53.3004 20.0879 53.8365 20.4433 54.4652 20.7066C55.0939 20.9633 55.7624 21.0949 56.4639 21.0949C56.9272 21.0949 57.4302 21.0093 57.9729 20.8316C58.5222 20.6539 58.9722 20.4301 59.3296 20.1603C59.495 20.0484 59.5678 19.8509 59.4884 19.7259L58.5023 18.2383C58.3964 18.087 58.1582 18.0804 57.953 18.2186Z" fill="#414141"/>
<path d="M60.726 20.542C60.726 20.7592 60.8584 20.8843 61.0768 20.8843H67.4303C67.6487 20.8843 67.7876 20.7527 67.7876 20.542V19.1203C67.7876 18.8505 67.6023 18.6727 67.3045 18.6727H63.102V17.0338H66.2919C66.5302 17.0338 66.6758 16.9022 66.6758 16.685V15.4344C66.6758 15.2041 66.5302 15.0724 66.2919 15.0724H63.102V13.4796H67.3045C67.5361 13.4796 67.6553 13.3611 67.6553 13.1307V11.6169C67.6553 11.3997 67.5229 11.268 67.3045 11.268H61.0768C60.8584 11.268 60.726 11.3997 60.726 11.6169V20.542Z" fill="#414141"/>
<path d="M75.1735 15.7898C75.7229 15.4278 76.067 14.7499 76.067 14.0456C76.067 13.1702 75.7824 12.4857 75.2199 11.9986C74.6573 11.5116 73.8698 11.268 72.8506 11.268H69.376C69.2039 11.268 69.1179 11.3536 69.1179 11.5182V20.6342C69.1179 20.7987 69.2039 20.8843 69.376 20.8843H73.1285C74.1941 20.8843 75.0213 20.6276 75.6103 20.1208C76.206 19.614 76.5038 18.9031 76.5038 17.9882C76.5038 17.5077 76.3847 17.0667 76.1464 16.6652C75.9082 16.2637 75.5839 15.9741 75.1735 15.7898ZM72.8241 13.4072C73.3469 13.4072 73.6712 13.7165 73.6712 14.2168C73.6712 14.717 73.3469 15.0329 72.8241 15.0329H71.5203V13.4072H72.8241ZM71.5203 18.7452V16.8166H73.0954C73.7109 16.8166 74.1014 17.1786 74.1014 17.7644C74.1014 18.3634 73.7109 18.7452 73.0954 18.7452H71.5203Z" fill="#414141"/>
<path d="M77.6951 20.542C77.6951 20.7592 77.8274 20.8843 78.0458 20.8843H84.3993C84.6177 20.8843 84.7567 20.7527 84.7567 20.542V19.1203C84.7567 18.8505 84.5714 18.6727 84.2736 18.6727H80.071V17.0338H83.261C83.4992 17.0338 83.6448 16.9022 83.6448 16.685V15.4344C83.6448 15.2041 83.4992 15.0724 83.261 15.0724H80.071V13.4796H84.2736C84.5052 13.4796 84.6243 13.3611 84.6243 13.1307V11.6169C84.6243 11.3997 84.492 11.268 84.2736 11.268H78.0458C77.8274 11.268 77.6951 11.3997 77.6951 11.6169V20.542Z" fill="#414141"/>
<path d="M88.1452 11.268H87.2848H86.4311C86.2259 11.268 86.087 11.4194 86.087 11.6235V20.542C86.087 20.7592 86.2127 20.8909 86.4311 20.8909H88.1254C88.357 20.8909 88.4894 20.7592 88.4894 20.542V17.9224H89.6475C90.68 17.9224 91.5139 17.6196 92.1558 17.0207C92.7978 16.4151 93.1221 15.6121 93.1221 14.6117C93.1221 13.5981 92.7978 12.7885 92.1558 12.1829C91.5139 11.5708 90.68 11.268 89.6475 11.268H88.1452ZM88.4894 15.7569V13.4335H89.5483C89.8858 13.4335 90.1704 13.5454 90.3888 13.7692C90.6138 13.9864 90.7263 14.2628 90.7263 14.5985C90.7263 14.9342 90.6138 15.2106 90.3888 15.4278C90.1704 15.645 89.8858 15.7569 89.5483 15.7569H88.4894Z" fill="#414141"/>
<path d="M100.389 11.268H97.4305C96.3981 11.268 95.5576 11.5708 94.9156 12.1829C94.2737 12.7885 93.956 13.5981 93.956 14.6051C93.956 15.8096 94.5053 16.8035 95.4517 17.3629L93.7574 20.4894C93.6516 20.6802 93.7707 20.8909 93.9825 20.8909H95.9613C96.1532 20.8909 96.2393 20.8251 96.365 20.5947L97.7813 17.8829H98.7674V20.542C98.7674 20.7592 98.8998 20.8909 99.1314 20.8909H100.826C101.044 20.8909 101.17 20.7592 101.17 20.542V11.6169C101.17 11.4128 101.031 11.268 100.826 11.268H100.389ZM97.5298 15.8228C97.1923 15.8228 96.9077 15.7043 96.6827 15.4673C96.4643 15.2238 96.3518 14.9342 96.3518 14.5919C96.3518 14.2497 96.4643 13.9732 96.6827 13.756C96.9011 13.5388 97.1857 13.4269 97.5298 13.4269H98.7674V15.8228H97.5298Z" fill="#414141"/>
<path d="M109.039 11.268C108.873 11.268 108.787 11.3536 108.787 11.5247V14.8486H105.167V11.5247C105.167 11.3536 105.081 11.268 104.916 11.268H103.049C102.877 11.268 102.791 11.3536 102.791 11.5247V20.6342C102.791 20.8053 102.877 20.8909 103.049 20.8909H104.916C105.081 20.8909 105.167 20.8053 105.167 20.6342V17.0141H108.787V20.6342C108.787 20.8053 108.873 20.8909 109.039 20.8909H110.912C111.077 20.8909 111.163 20.8053 111.163 20.6342V11.5247C111.163 11.3536 111.077 11.268 110.912 11.268H109.039Z" fill="#414141"/>
<path d="M112.341 16.0992C112.341 16.7837 112.474 17.4353 112.732 18.054C112.997 18.6662 113.354 19.1993 113.797 19.6403C114.247 20.0813 114.783 20.4367 115.406 20.7C116.028 20.9567 116.683 21.0883 117.378 21.0883C118.304 21.0883 119.151 20.8711 119.919 20.4301C120.693 19.9891 121.296 19.3836 121.739 18.6201C122.183 17.8566 122.408 17.0141 122.408 16.0992C122.408 15.4081 122.275 14.7565 122.011 14.1378C121.752 13.5125 121.395 12.9793 120.945 12.5384C120.502 12.0974 119.965 11.7419 119.343 11.4852C118.728 11.222 118.073 11.0903 117.378 11.0903C116.683 11.0903 116.028 11.222 115.406 11.4852C114.783 11.7419 114.247 12.0974 113.797 12.5384C113.354 12.9793 112.997 13.5125 112.732 14.1378C112.474 14.7565 112.341 15.4081 112.341 16.0992ZM114.737 16.0992C114.737 15.362 114.995 14.7433 115.505 14.2365C116.014 13.7297 116.643 13.473 117.378 13.473C118.112 13.473 118.735 13.7297 119.244 14.2365C119.754 14.7433 120.012 15.362 120.012 16.0992C120.012 16.8298 119.754 17.4419 119.244 17.9487C118.735 18.4555 118.112 18.7057 117.378 18.7057C116.637 18.7057 116.008 18.4555 115.498 17.9487C114.989 17.4419 114.737 16.8298 114.737 16.0992Z" fill="#414141"/>
<path d="M129.304 11.2615C129.118 11.2615 128.966 11.426 128.966 11.6169V14.3287C128.966 14.8223 128.807 15.2172 128.496 15.5134C128.185 15.8096 127.775 15.961 127.252 15.961C126.213 15.961 125.598 15.3489 125.598 14.3155V11.6169C125.598 11.4128 125.439 11.2615 125.227 11.2615H123.526C123.347 11.2615 123.202 11.426 123.202 11.6169V14.3221C123.202 15.52 123.559 16.481 124.274 17.205C124.989 17.9224 125.915 18.2844 127.054 18.2844C127.795 18.2844 128.49 17.9882 128.966 17.5341V20.542C128.966 20.7329 129.112 20.8843 129.304 20.8843H131.018C131.21 20.8843 131.362 20.7263 131.362 20.5354V11.6169C131.362 11.4128 131.223 11.2615 131.038 11.2615H129.304Z" fill="#414141"/>
<path d="M138.715 15.803L141.792 11.7222C141.951 11.5116 141.885 11.2878 141.64 11.2878H139.463C139.231 11.2878 139.105 11.3141 138.953 11.5182L136.445 14.8684H135.379V11.5247C135.379 11.3602 135.293 11.2746 135.128 11.2746H133.242C133.07 11.2746 132.983 11.3602 132.983 11.5247V20.6276C132.983 20.7987 133.07 20.8843 133.242 20.8843H135.128C135.293 20.8843 135.379 20.7987 135.379 20.6276V17.1194H136.743L139.178 20.7527C139.264 20.8514 139.383 20.904 139.522 20.904H141.72C141.951 20.904 142.011 20.6737 141.878 20.4828L138.715 15.803Z" fill="#414141"/>
<path d="M148.192 11.584C148.119 11.3931 147.941 11.2615 147.755 11.2615H146.359C146.174 11.2615 145.995 11.3799 145.909 11.584L142.375 20.5025C142.289 20.7329 142.388 20.8909 142.633 20.8909H144.506C144.711 20.8909 144.883 20.7592 144.936 20.5749L145.366 19.3178H148.722L149.158 20.5815C149.231 20.7658 149.397 20.8975 149.582 20.8975H151.461C151.72 20.8975 151.806 20.7263 151.72 20.5091L148.192 11.584ZM147.041 14.4142L148.04 17.33H146.041L147.041 14.4142Z" fill="#414141"/>
</svg>
