<svg width="12.921875" height="12.386795" viewBox="0 0 12.9219 12.3868" fill="none" xmlns="http://www.w3.org/2000/svg" xmlns:xlink="http://www.w3.org/1999/xlink">
	<desc>
			Created with Pixso.
	</desc>
	<defs/>
	<path id="Star 1" d="M5.56445 0.557434L4.34277 3.03294C4.19727 3.32808 3.91504 3.53265 3.58984 3.57999L0.857422 3.97694C0.0371094 4.09613 -0.290039 5.1041 0.303711 5.68263L2.28027 7.60954C2.51562 7.83929 2.62305 8.17029 2.56738 8.49467L2.10156 11.2155C1.96094 12.0324 2.81836 12.6554 3.55176 12.2697L5.99512 10.9851C6.28711 10.8319 6.63477 10.8319 6.92676 10.9851L9.37012 12.2697C10.1035 12.6554 10.9609 12.0324 10.8203 11.2155L10.3545 8.49467C10.2988 8.17029 10.4062 7.83929 10.6416 7.60956L12.6182 5.68263C13.2119 5.1041 12.8848 4.09613 12.0645 3.97694L9.33203 3.57997C9.00684 3.53265 8.72461 3.32808 8.5791 3.03294L7.35742 0.557434C6.99121 -0.185806 5.93066 -0.185806 5.56445 0.557434Z" fill="#BFBFBF" fill-opacity="1.000000" fill-rule="evenodd"/>
</svg>
