<svg width="2016.000000" height="252.000000" viewBox="0 0 2016 252" fill="none" xmlns="http://www.w3.org/2000/svg" xmlns:xlink="http://www.w3.org/1999/xlink">
	<desc>
			Created with Pixso.
	</desc>
	<defs/>
	<g opacity="0.300000">
		<rect id="pattern2" width="252.000000" height="252.000000" fill="#FFFFFF" fill-opacity="0"/>
		<rect id="atom" width="40.674759" height="18.444111" transform="translate(19.779297 19.757446) rotate(41.880878)" fill="#FFFFFF" fill-opacity="0"/>
		<path id="Vector" d="M49.0391 45.9929L20.8037 20.6761C20.2119 20.1457 19.2773 20.2167 18.7979 20.8605C13.0791 28.4852 14.6309 39.9142 22.6084 47.0668C30.5859 54.2194 42.1133 54.5227 49.0732 48.0072C49.6592 47.4583 49.6309 46.5233 49.0391 45.9929Z" fill="#FF6633" fill-opacity="1.000000" fill-rule="nonzero"/>
		<rect id="atom" width="40.674767" height="18.444115" transform="translate(224.480469 245.031372) rotate(-138.119064)" fill="#FFFFFF" fill-opacity="0"/>
		<path id="Vector" d="M195.221 218.796L223.456 244.113C224.048 244.643 224.982 244.572 225.462 243.928C231.181 236.304 229.629 224.875 221.651 217.722C213.674 210.569 202.146 210.266 195.187 216.782C194.601 217.33 194.629 218.265 195.221 218.796Z" fill="#FF6633" fill-opacity="1.000000" fill-rule="nonzero"/>
		<rect id="atom" width="40.674782" height="18.444115" transform="translate(196.649414 70.242950) rotate(39.257843)" fill="#FFFFFF" fill-opacity="0"/>
		<path id="Vector" d="M227.079 95.1119L197.715 71.1138C197.1 70.611 196.169 70.7247 195.72 71.3898C190.356 79.2682 192.43 90.6141 200.726 97.3942C209.021 104.174 220.551 103.95 227.206 97.1224C227.766 96.5474 227.694 95.6147 227.079 95.1119Z" fill="#FF6633" fill-opacity="1.000000" fill-rule="nonzero"/>
		<rect id="atom" width="40.674782" height="18.444120" transform="translate(64.274414 150.698120) rotate(134.771683)" fill="#FFFFFF" fill-opacity="0"/>
		<path id="Vector" d="M36.5967 178.597L63.3057 151.675C63.8652 151.111 63.8408 150.173 63.2227 149.662C55.8955 143.567 44.4033 144.54 36.8574 152.146C29.3115 159.753 28.4268 171.25 34.583 178.53C35.1016 179.143 36.0371 179.161 36.5967 178.597Z" fill="#FF6633" fill-opacity="1.000000" fill-rule="nonzero"/>
		<rect id="atom" width="40.674747" height="20.276306" transform="translate(36.701172 75.804932) rotate(83.937752)" fill="#FFFFFF" fill-opacity="0"/>
		<path id="Ellipse 7" d="M30.915 117.323C25.3477 117.914 19.8721 109.339 18.6865 98.1699C17.5 87.0007 21.0518 77.4669 26.6201 76.8756C32.1875 76.2843 37.6631 84.8594 38.8486 96.0286C40.0352 107.198 36.4834 116.732 30.915 117.323Z" fill="#FCA21C" fill-opacity="1.000000" fill-rule="nonzero"/>
		<rect id="atom" width="40.674778" height="20.276312" transform="translate(210.785156 178.099243) rotate(-96.062218)" fill="#FFFFFF" fill-opacity="0"/>
		<path id="Ellipse 7" d="M216.571 136.581C222.139 135.99 227.614 144.565 228.8 155.734C229.986 166.903 226.435 176.437 220.866 177.029C215.299 177.62 209.823 169.045 208.638 157.876C207.451 146.706 211.003 137.173 216.571 136.581Z" fill="#FCA21C" fill-opacity="1.000000" fill-rule="nonzero"/>
		<rect id="atom" width="40.674778" height="16.147881" transform="translate(125.558594 59.221191) rotate(-54.290577)" fill="#FFFFFF" fill-opacity="0"/>
		<path id="Ellipse 7" d="M155.855 30.9063C159.477 33.509 157.097 43.0123 150.541 52.1326C143.985 61.2529 135.735 66.5364 132.114 63.9337C128.494 61.3311 130.873 51.8278 137.429 42.7075C143.984 33.5872 152.234 28.3036 155.855 30.9063Z" fill="#FCA21C" fill-opacity="1.000000" fill-rule="nonzero"/>
		<rect id="atom" width="40.674759" height="16.147877" transform="translate(114.407227 146.333557) rotate(96.214798)" fill="#FFFFFF" fill-opacity="0"/>
		<path id="Ellipse 7" d="M101.978 185.895C97.5449 185.412 94.9365 175.969 96.1523 164.803C97.3682 153.637 101.948 144.977 106.381 145.46C110.813 145.942 113.422 155.385 112.206 166.551C110.989 177.717 106.41 186.378 101.978 185.895Z" fill="#FCA21C" fill-opacity="1.000000" fill-rule="nonzero"/>
		<rect id="atom" width="40.674763" height="18.566246" transform="translate(68.222656 77.706451) rotate(17.999704)" fill="#FFFFFF" fill-opacity="0"/>
		<path id="Subtract (Stroke)" d="M104.329 90.6266C106.185 93.2202 105.584 96.8214 102.988 98.67C97.1436 102.833 89.2773 104.069 81.8271 101.648C74.377 99.2277 68.7412 93.6034 66.459 86.8016C65.4453 83.7804 67.0762 80.5139 70.1006 79.5056C73.126 78.4973 76.3994 80.129 77.4131 83.1501C78.4902 86.3597 81.2998 89.3519 85.3906 90.6812C89.4824 92.0108 93.5146 91.2415 96.2715 89.2779C98.8672 87.4292 102.475 88.0331 104.329 90.6266Z" fill="#70C05B" fill-opacity="1.000000" fill-rule="evenodd"/>
		<rect id="atom" width="40.674755" height="18.566275" transform="translate(182.684570 174.519409) rotate(-162.000244)" fill="#FFFFFF" fill-opacity="0"/>
		<path id="Subtract (Stroke)" d="M146.578 161.599C144.723 159.006 145.323 155.404 147.919 153.556C153.764 149.393 161.63 148.157 169.08 150.577C176.53 152.998 182.166 158.622 184.448 165.424C185.462 168.445 183.831 171.712 180.807 172.72C177.781 173.729 174.508 172.097 173.494 169.076C172.417 165.866 169.607 162.874 165.517 161.545C161.425 160.215 157.393 160.984 154.636 162.948C152.04 164.797 148.433 164.193 146.578 161.599Z" fill="#70C05B" fill-opacity="1.000000" fill-rule="evenodd"/>
		<rect id="atom" width="40.674740" height="18.566246" transform="translate(230.881836 52.838867) rotate(-135.627472)" fill="#FFFFFF" fill-opacity="0"/>
		<path id="Subtract (Stroke)" d="M204.272 25.2243C203.763 22.0768 205.9 19.1172 209.047 18.6139C216.133 17.4806 223.729 19.8674 229.328 25.3456C234.928 30.8238 237.479 38.3662 236.502 45.4738C236.068 48.6308 233.156 50.8331 229.998 50.3928C226.841 49.9524 224.632 47.0363 225.066 43.8793C225.527 40.5253 224.339 36.5966 221.265 33.5884C218.188 30.5793 214.235 29.4777 210.893 30.0123C207.746 30.5155 204.782 28.3719 204.272 25.2243Z" fill="#70C05B" fill-opacity="1.000000" fill-rule="evenodd"/>
		<rect id="atom" width="40.674770" height="18.566246" transform="translate(76.963867 219.219391) rotate(8.575407)" fill="#FFFFFF" fill-opacity="0"/>
		<path id="Subtract (Stroke)" d="M114.699 226.053C116.953 228.308 116.951 231.959 114.692 234.207C109.608 239.271 102.051 241.779 94.3047 240.611C86.5586 239.442 80.0781 234.817 76.7129 228.481C75.2188 225.666 76.292 222.177 79.1113 220.687C81.9297 219.197 85.4268 220.27 86.9219 223.085C88.5098 226.075 91.7705 228.566 96.0244 229.208C100.279 229.849 104.131 228.43 106.528 226.042C108.786 223.793 112.444 223.798 114.699 226.053Z" fill="#70C05B" fill-opacity="1.000000" fill-rule="evenodd"/>
		<rect id="atom" width="38.353981" height="18.199821" transform="translate(78.001953 25.900360) rotate(-33.850700)" fill="#FFFFFF" fill-opacity="0"/>
		<path id="Rectangle 6255" d="M80.7236 29.958C79.2207 27.717 79.8184 24.6819 82.0596 23.1788L105.797 7.25757C108.038 5.75452 111.073 6.35269 112.576 8.59369L117.271 15.5931C118.774 17.8341 118.176 20.8693 115.935 22.3724L92.1973 38.2936C89.9561 39.7967 86.9209 39.1985 85.418 36.9575L80.7236 29.958Z" fill="#1CB9FC" fill-opacity="1.000000" fill-rule="nonzero"/>
		<rect id="atom" width="38.353954" height="18.199797" transform="translate(133.315430 198.717346) rotate(-12.315752)" fill="#FFFFFF" fill-opacity="0"/>
		<path id="Rectangle 6255" d="M134.357 203.491C133.782 200.854 135.452 198.251 138.089 197.675L166.014 191.579C168.649 191.003 171.253 192.674 171.829 195.31L173.627 203.544C174.202 206.18 172.531 208.784 169.896 209.36L141.971 215.456C139.335 216.032 136.73 214.361 136.155 211.725L134.357 203.491Z" fill="#1CB9FC" fill-opacity="1.000000" fill-rule="nonzero"/>
		<rect id="atom" width="38.353992" height="18.199825" transform="translate(158.850586 128.393707) rotate(-131.732651)" fill="#FFFFFF" fill-opacity="0"/>
		<path id="Rectangle 6255" d="M162.497 125.141C160.483 126.938 157.395 126.761 155.599 124.748L136.572 103.418C134.776 101.404 134.952 98.3156 136.966 96.5194L143.256 90.9092C145.27 89.113 148.358 89.2893 150.154 91.303L169.18 112.633C170.977 114.646 170.8 117.735 168.786 119.531L162.497 125.141Z" fill="#1CB9FC" fill-opacity="1.000000" fill-rule="nonzero"/>
		<rect id="atom" width="38.353916" height="18.199818" transform="translate(34.474609 198.731323) rotate(80.259499)" fill="#FFFFFF" fill-opacity="0"/>
		<path id="Rectangle 6255" d="M29.6592 199.558C32.3184 199.101 34.8447 200.887 35.3008 203.547L40.1367 231.717C40.5938 234.376 38.8076 236.902 36.1484 237.359L27.8418 238.785C25.1816 239.241 22.6562 237.456 22.1992 234.796L17.3643 206.626C16.9072 203.966 18.6934 201.44 21.3525 200.984L29.6592 199.558Z" fill="#1CB9FC" fill-opacity="1.000000" fill-rule="nonzero"/>
		<rect id="pattern2" width="252.000000" height="252.000000" transform="translate(252.000000 0.000000)" fill="#FFFFFF" fill-opacity="0"/>
		<rect id="atom" width="40.674759" height="18.444111" transform="translate(271.779297 19.757446) rotate(41.880878)" fill="#FFFFFF" fill-opacity="0"/>
		<path id="Vector" d="M301.039 45.9929L272.804 20.6761C272.212 20.1457 271.277 20.2167 270.798 20.8605C265.079 28.4852 266.631 39.9142 274.608 47.0668C282.586 54.2194 294.113 54.5227 301.073 48.0072C301.659 47.4583 301.631 46.5233 301.039 45.9929Z" fill="#FF6633" fill-opacity="1.000000" fill-rule="nonzero"/>
		<rect id="atom" width="40.674767" height="18.444115" transform="translate(476.480469 245.031372) rotate(-138.119064)" fill="#FFFFFF" fill-opacity="0"/>
		<path id="Vector" d="M447.221 218.796L475.456 244.113C476.048 244.643 476.982 244.572 477.462 243.928C483.181 236.304 481.629 224.875 473.651 217.722C465.674 210.569 454.146 210.266 447.187 216.782C446.601 217.33 446.629 218.265 447.221 218.796Z" fill="#FF6633" fill-opacity="1.000000" fill-rule="nonzero"/>
		<rect id="atom" width="40.674782" height="18.444115" transform="translate(448.649414 70.242950) rotate(39.257843)" fill="#FFFFFF" fill-opacity="0"/>
		<path id="Vector" d="M479.079 95.1119L449.715 71.1138C449.1 70.611 448.169 70.7247 447.72 71.3898C442.356 79.2682 444.43 90.6141 452.726 97.3942C461.021 104.174 472.551 103.95 479.206 97.1224C479.766 96.5474 479.694 95.6147 479.079 95.1119Z" fill="#FF6633" fill-opacity="1.000000" fill-rule="nonzero"/>
		<rect id="atom" width="40.674782" height="18.444120" transform="translate(316.274414 150.698120) rotate(134.771683)" fill="#FFFFFF" fill-opacity="0"/>
		<path id="Vector" d="M288.597 178.597L315.306 151.675C315.865 151.111 315.841 150.173 315.223 149.662C307.896 143.567 296.403 144.54 288.857 152.146C281.312 159.753 280.427 171.25 286.583 178.53C287.102 179.143 288.037 179.161 288.597 178.597Z" fill="#FF6633" fill-opacity="1.000000" fill-rule="nonzero"/>
		<rect id="atom" width="40.674747" height="20.276306" transform="translate(288.701172 75.804932) rotate(83.937752)" fill="#FFFFFF" fill-opacity="0"/>
		<path id="Ellipse 7" d="M282.915 117.323C277.348 117.914 271.872 109.339 270.687 98.1699C269.5 87.0007 273.052 77.4669 278.62 76.8756C284.188 76.2843 289.663 84.8594 290.849 96.0286C292.035 107.198 288.483 116.732 282.915 117.323Z" fill="#FCA21C" fill-opacity="1.000000" fill-rule="nonzero"/>
		<rect id="atom" width="40.674778" height="20.276312" transform="translate(462.785156 178.099243) rotate(-96.062218)" fill="#FFFFFF" fill-opacity="0"/>
		<path id="Ellipse 7" d="M468.571 136.581C474.139 135.99 479.614 144.565 480.8 155.734C481.986 166.903 478.435 176.437 472.866 177.029C467.299 177.62 461.823 169.045 460.638 157.876C459.451 146.706 463.003 137.173 468.571 136.581Z" fill="#FCA21C" fill-opacity="1.000000" fill-rule="nonzero"/>
		<rect id="atom" width="40.674778" height="16.147881" transform="translate(377.558594 59.221191) rotate(-54.290577)" fill="#FFFFFF" fill-opacity="0"/>
		<path id="Ellipse 7" d="M407.855 30.9063C411.477 33.509 409.097 43.0123 402.541 52.1326C395.985 61.2529 387.735 66.5364 384.114 63.9337C380.494 61.3311 382.873 51.8278 389.429 42.7075C395.984 33.5872 404.234 28.3036 407.855 30.9063Z" fill="#FCA21C" fill-opacity="1.000000" fill-rule="nonzero"/>
		<rect id="atom" width="40.674759" height="16.147877" transform="translate(366.407227 146.333557) rotate(96.214798)" fill="#FFFFFF" fill-opacity="0"/>
		<path id="Ellipse 7" d="M353.978 185.895C349.545 185.412 346.937 175.969 348.152 164.803C349.368 153.637 353.948 144.977 358.381 145.46C362.813 145.942 365.422 155.385 364.206 166.551C362.989 177.717 358.41 186.378 353.978 185.895Z" fill="#FCA21C" fill-opacity="1.000000" fill-rule="nonzero"/>
		<rect id="atom" width="40.674763" height="18.566246" transform="translate(320.222656 77.706451) rotate(17.999704)" fill="#FFFFFF" fill-opacity="0"/>
		<path id="Subtract (Stroke)" d="M356.329 90.6266C358.185 93.2202 357.584 96.8214 354.988 98.67C349.144 102.833 341.277 104.069 333.827 101.648C326.377 99.2277 320.741 93.6034 318.459 86.8016C317.445 83.7804 319.076 80.5139 322.101 79.5056C325.126 78.4973 328.399 80.129 329.413 83.1501C330.49 86.3597 333.3 89.3519 337.391 90.6812C341.482 92.0108 345.515 91.2415 348.271 89.2779C350.867 87.4292 354.475 88.0331 356.329 90.6266Z" fill="#70C05B" fill-opacity="1.000000" fill-rule="evenodd"/>
		<rect id="atom" width="40.674755" height="18.566275" transform="translate(434.684570 174.519409) rotate(-162.000244)" fill="#FFFFFF" fill-opacity="0"/>
		<path id="Subtract (Stroke)" d="M398.578 161.599C396.723 159.006 397.323 155.404 399.919 153.556C405.764 149.393 413.63 148.157 421.08 150.577C428.53 152.998 434.166 158.622 436.448 165.424C437.462 168.445 435.831 171.712 432.807 172.72C429.781 173.729 426.508 172.097 425.494 169.076C424.417 165.866 421.607 162.874 417.517 161.545C413.425 160.215 409.393 160.984 406.636 162.948C404.04 164.797 400.433 164.193 398.578 161.599Z" fill="#70C05B" fill-opacity="1.000000" fill-rule="evenodd"/>
		<rect id="atom" width="40.674740" height="18.566246" transform="translate(482.881836 52.838867) rotate(-135.627472)" fill="#FFFFFF" fill-opacity="0"/>
		<path id="Subtract (Stroke)" d="M456.272 25.2243C455.763 22.0768 457.9 19.1172 461.047 18.6139C468.133 17.4806 475.729 19.8674 481.328 25.3456C486.928 30.8238 489.479 38.3662 488.502 45.4738C488.068 48.6308 485.156 50.8331 481.998 50.3928C478.841 49.9524 476.632 47.0363 477.066 43.8793C477.527 40.5253 476.339 36.5966 473.265 33.5884C470.188 30.5793 466.235 29.4777 462.893 30.0123C459.746 30.5155 456.782 28.3719 456.272 25.2243Z" fill="#70C05B" fill-opacity="1.000000" fill-rule="evenodd"/>
		<rect id="atom" width="40.674770" height="18.566246" transform="translate(328.963867 219.219391) rotate(8.575407)" fill="#FFFFFF" fill-opacity="0"/>
		<path id="Subtract (Stroke)" d="M366.699 226.053C368.953 228.308 368.951 231.959 366.692 234.207C361.608 239.271 354.051 241.779 346.305 240.611C338.559 239.442 332.078 234.817 328.713 228.481C327.219 225.666 328.292 222.177 331.111 220.687C333.93 219.197 337.427 220.27 338.922 223.085C340.51 226.075 343.771 228.566 348.024 229.208C352.279 229.849 356.131 228.43 358.528 226.042C360.786 223.793 364.444 223.798 366.699 226.053Z" fill="#70C05B" fill-opacity="1.000000" fill-rule="evenodd"/>
		<rect id="atom" width="38.353981" height="18.199821" transform="translate(330.001953 25.900360) rotate(-33.850700)" fill="#FFFFFF" fill-opacity="0"/>
		<path id="Rectangle 6255" d="M332.724 29.958C331.221 27.717 331.818 24.6819 334.06 23.1788L357.797 7.25757C360.038 5.75452 363.073 6.35269 364.576 8.59369L369.271 15.5931C370.774 17.8341 370.176 20.8693 367.935 22.3724L344.197 38.2936C341.956 39.7967 338.921 39.1985 337.418 36.9575L332.724 29.958Z" fill="#1CB9FC" fill-opacity="1.000000" fill-rule="nonzero"/>
		<rect id="atom" width="38.353954" height="18.199797" transform="translate(385.315430 198.717346) rotate(-12.315752)" fill="#FFFFFF" fill-opacity="0"/>
		<path id="Rectangle 6255" d="M386.357 203.491C385.782 200.854 387.452 198.251 390.089 197.675L418.014 191.579C420.649 191.003 423.253 192.674 423.829 195.31L425.627 203.544C426.202 206.18 424.531 208.784 421.896 209.36L393.971 215.456C391.335 216.032 388.73 214.361 388.155 211.725L386.357 203.491Z" fill="#1CB9FC" fill-opacity="1.000000" fill-rule="nonzero"/>
		<rect id="atom" width="38.353992" height="18.199825" transform="translate(410.850586 128.393707) rotate(-131.732651)" fill="#FFFFFF" fill-opacity="0"/>
		<path id="Rectangle 6255" d="M414.497 125.141C412.483 126.938 409.395 126.761 407.599 124.748L388.572 103.418C386.776 101.404 386.952 98.3156 388.966 96.5194L395.256 90.9092C397.27 89.113 400.358 89.2893 402.154 91.303L421.18 112.633C422.977 114.646 422.8 117.735 420.786 119.531L414.497 125.141Z" fill="#1CB9FC" fill-opacity="1.000000" fill-rule="nonzero"/>
		<rect id="atom" width="38.353916" height="18.199818" transform="translate(286.474609 198.731323) rotate(80.259499)" fill="#FFFFFF" fill-opacity="0"/>
		<path id="Rectangle 6255" d="M281.659 199.558C284.318 199.101 286.845 200.887 287.301 203.547L292.137 231.717C292.594 234.376 290.808 236.902 288.148 237.359L279.842 238.785C277.182 239.241 274.656 237.456 274.199 234.796L269.364 206.626C268.907 203.966 270.693 201.44 273.353 200.984L281.659 199.558Z" fill="#1CB9FC" fill-opacity="1.000000" fill-rule="nonzero"/>
		<rect id="pattern2" width="252.000000" height="252.000000" transform="translate(504.000000 0.000000)" fill="#FFFFFF" fill-opacity="0"/>
		<rect id="atom" width="40.674759" height="18.444111" transform="translate(523.779297 19.757446) rotate(41.880878)" fill="#FFFFFF" fill-opacity="0"/>
		<path id="Vector" d="M553.039 45.9929L524.804 20.6761C524.212 20.1457 523.277 20.2167 522.798 20.8605C517.079 28.4852 518.631 39.9142 526.608 47.0668C534.586 54.2194 546.113 54.5227 553.073 48.0072C553.659 47.4583 553.631 46.5233 553.039 45.9929Z" fill="#FF6633" fill-opacity="1.000000" fill-rule="nonzero"/>
		<rect id="atom" width="40.674767" height="18.444115" transform="translate(728.480469 245.031372) rotate(-138.119064)" fill="#FFFFFF" fill-opacity="0"/>
		<path id="Vector" d="M699.221 218.796L727.456 244.113C728.048 244.643 728.982 244.572 729.462 243.928C735.181 236.304 733.629 224.875 725.651 217.722C717.674 210.569 706.146 210.266 699.187 216.782C698.601 217.33 698.629 218.265 699.221 218.796Z" fill="#FF6633" fill-opacity="1.000000" fill-rule="nonzero"/>
		<rect id="atom" width="40.674782" height="18.444115" transform="translate(700.649414 70.242950) rotate(39.257843)" fill="#FFFFFF" fill-opacity="0"/>
		<path id="Vector" d="M731.079 95.1119L701.715 71.1138C701.1 70.611 700.169 70.7247 699.72 71.3898C694.356 79.2682 696.43 90.6141 704.726 97.3942C713.021 104.174 724.551 103.95 731.206 97.1224C731.766 96.5474 731.694 95.6147 731.079 95.1119Z" fill="#FF6633" fill-opacity="1.000000" fill-rule="nonzero"/>
		<rect id="atom" width="40.674782" height="18.444120" transform="translate(568.274414 150.698120) rotate(134.771683)" fill="#FFFFFF" fill-opacity="0"/>
		<path id="Vector" d="M540.597 178.597L567.306 151.675C567.865 151.111 567.841 150.173 567.223 149.662C559.896 143.567 548.403 144.54 540.857 152.146C533.312 159.753 532.427 171.25 538.583 178.53C539.102 179.143 540.037 179.161 540.597 178.597Z" fill="#FF6633" fill-opacity="1.000000" fill-rule="nonzero"/>
		<rect id="atom" width="40.674747" height="20.276306" transform="translate(540.701172 75.804932) rotate(83.937752)" fill="#FFFFFF" fill-opacity="0"/>
		<path id="Ellipse 7" d="M534.915 117.323C529.348 117.914 523.872 109.339 522.687 98.1699C521.5 87.0007 525.052 77.4669 530.62 76.8756C536.188 76.2843 541.663 84.8594 542.849 96.0286C544.035 107.198 540.483 116.732 534.915 117.323Z" fill="#FCA21C" fill-opacity="1.000000" fill-rule="nonzero"/>
		<rect id="atom" width="40.674778" height="20.276312" transform="translate(714.785156 178.099243) rotate(-96.062218)" fill="#FFFFFF" fill-opacity="0"/>
		<path id="Ellipse 7" d="M720.571 136.581C726.139 135.99 731.614 144.565 732.8 155.734C733.986 166.903 730.435 176.437 724.866 177.029C719.299 177.62 713.823 169.045 712.638 157.876C711.451 146.706 715.003 137.173 720.571 136.581Z" fill="#FCA21C" fill-opacity="1.000000" fill-rule="nonzero"/>
		<rect id="atom" width="40.674778" height="16.147881" transform="translate(629.558594 59.221191) rotate(-54.290577)" fill="#FFFFFF" fill-opacity="0"/>
		<path id="Ellipse 7" d="M659.855 30.9063C663.477 33.509 661.097 43.0123 654.541 52.1326C647.985 61.2529 639.735 66.5364 636.114 63.9337C632.494 61.3311 634.873 51.8278 641.429 42.7075C647.984 33.5872 656.234 28.3036 659.855 30.9063Z" fill="#FCA21C" fill-opacity="1.000000" fill-rule="nonzero"/>
		<rect id="atom" width="40.674759" height="16.147877" transform="translate(618.407227 146.333557) rotate(96.214798)" fill="#FFFFFF" fill-opacity="0"/>
		<path id="Ellipse 7" d="M605.978 185.895C601.545 185.412 598.937 175.969 600.152 164.803C601.368 153.637 605.948 144.977 610.381 145.46C614.813 145.942 617.422 155.385 616.206 166.551C614.989 177.717 610.41 186.378 605.978 185.895Z" fill="#FCA21C" fill-opacity="1.000000" fill-rule="nonzero"/>
		<rect id="atom" width="40.674763" height="18.566246" transform="translate(572.222656 77.706451) rotate(17.999704)" fill="#FFFFFF" fill-opacity="0"/>
		<path id="Subtract (Stroke)" d="M608.329 90.6266C610.185 93.2202 609.584 96.8214 606.988 98.67C601.144 102.833 593.277 104.069 585.827 101.648C578.377 99.2277 572.741 93.6034 570.459 86.8016C569.445 83.7804 571.076 80.5139 574.101 79.5056C577.126 78.4973 580.399 80.129 581.413 83.1501C582.49 86.3597 585.3 89.3519 589.391 90.6812C593.482 92.0108 597.515 91.2415 600.271 89.2779C602.867 87.4292 606.475 88.0331 608.329 90.6266Z" fill="#70C05B" fill-opacity="1.000000" fill-rule="evenodd"/>
		<rect id="atom" width="40.674755" height="18.566275" transform="translate(686.684570 174.519409) rotate(-162.000244)" fill="#FFFFFF" fill-opacity="0"/>
		<path id="Subtract (Stroke)" d="M650.578 161.599C648.723 159.006 649.323 155.404 651.919 153.556C657.764 149.393 665.63 148.157 673.08 150.577C680.53 152.998 686.166 158.622 688.448 165.424C689.462 168.445 687.831 171.712 684.807 172.72C681.781 173.729 678.508 172.097 677.494 169.076C676.417 165.866 673.607 162.874 669.517 161.545C665.425 160.215 661.393 160.984 658.636 162.948C656.04 164.797 652.433 164.193 650.578 161.599Z" fill="#70C05B" fill-opacity="1.000000" fill-rule="evenodd"/>
		<rect id="atom" width="40.674740" height="18.566246" transform="translate(734.881836 52.838867) rotate(-135.627472)" fill="#FFFFFF" fill-opacity="0"/>
		<path id="Subtract (Stroke)" d="M708.272 25.2243C707.763 22.0768 709.9 19.1172 713.047 18.6139C720.133 17.4806 727.729 19.8674 733.328 25.3456C738.928 30.8238 741.479 38.3662 740.502 45.4738C740.068 48.6308 737.156 50.8331 733.998 50.3928C730.841 49.9524 728.632 47.0363 729.066 43.8793C729.527 40.5253 728.339 36.5966 725.265 33.5884C722.188 30.5793 718.235 29.4777 714.893 30.0123C711.746 30.5155 708.782 28.3719 708.272 25.2243Z" fill="#70C05B" fill-opacity="1.000000" fill-rule="evenodd"/>
		<rect id="atom" width="40.674770" height="18.566246" transform="translate(580.963867 219.219391) rotate(8.575407)" fill="#FFFFFF" fill-opacity="0"/>
		<path id="Subtract (Stroke)" d="M618.699 226.053C620.953 228.308 620.951 231.959 618.692 234.207C613.608 239.271 606.051 241.779 598.305 240.611C590.559 239.442 584.078 234.817 580.713 228.481C579.219 225.666 580.292 222.177 583.111 220.687C585.93 219.197 589.427 220.27 590.922 223.085C592.51 226.075 595.771 228.566 600.024 229.208C604.279 229.849 608.131 228.43 610.528 226.042C612.786 223.793 616.444 223.798 618.699 226.053Z" fill="#70C05B" fill-opacity="1.000000" fill-rule="evenodd"/>
		<rect id="atom" width="38.353981" height="18.199821" transform="translate(582.001953 25.900360) rotate(-33.850700)" fill="#FFFFFF" fill-opacity="0"/>
		<path id="Rectangle 6255" d="M584.724 29.958C583.221 27.717 583.818 24.6819 586.06 23.1788L609.797 7.25757C612.038 5.75452 615.073 6.35269 616.576 8.59369L621.271 15.5931C622.774 17.8341 622.176 20.8693 619.935 22.3724L596.197 38.2936C593.956 39.7967 590.921 39.1985 589.418 36.9575L584.724 29.958Z" fill="#1CB9FC" fill-opacity="1.000000" fill-rule="nonzero"/>
		<rect id="atom" width="38.353954" height="18.199797" transform="translate(637.315430 198.717346) rotate(-12.315752)" fill="#FFFFFF" fill-opacity="0"/>
		<path id="Rectangle 6255" d="M638.357 203.491C637.782 200.854 639.452 198.251 642.089 197.675L670.014 191.579C672.649 191.003 675.253 192.674 675.829 195.31L677.627 203.544C678.202 206.18 676.531 208.784 673.896 209.36L645.971 215.456C643.335 216.032 640.73 214.361 640.155 211.725L638.357 203.491Z" fill="#1CB9FC" fill-opacity="1.000000" fill-rule="nonzero"/>
		<rect id="atom" width="38.353992" height="18.199825" transform="translate(662.850586 128.393707) rotate(-131.732651)" fill="#FFFFFF" fill-opacity="0"/>
		<path id="Rectangle 6255" d="M666.497 125.141C664.483 126.938 661.395 126.761 659.599 124.748L640.572 103.418C638.776 101.404 638.952 98.3156 640.966 96.5194L647.256 90.9092C649.27 89.113 652.358 89.2893 654.154 91.303L673.18 112.633C674.977 114.646 674.8 117.735 672.786 119.531L666.497 125.141Z" fill="#1CB9FC" fill-opacity="1.000000" fill-rule="nonzero"/>
		<rect id="atom" width="38.353916" height="18.199818" transform="translate(538.474609 198.731323) rotate(80.259499)" fill="#FFFFFF" fill-opacity="0"/>
		<path id="Rectangle 6255" d="M533.659 199.558C536.318 199.101 538.845 200.887 539.301 203.547L544.137 231.717C544.594 234.376 542.808 236.902 540.148 237.359L531.842 238.785C529.182 239.241 526.656 237.456 526.199 234.796L521.364 206.626C520.907 203.966 522.693 201.44 525.353 200.984L533.659 199.558Z" fill="#1CB9FC" fill-opacity="1.000000" fill-rule="nonzero"/>
		<rect id="pattern2" width="252.000000" height="252.000000" transform="translate(756.000000 0.000000)" fill="#FFFFFF" fill-opacity="0"/>
		<rect id="atom" width="40.674759" height="18.444111" transform="translate(775.779297 19.757446) rotate(41.880878)" fill="#FFFFFF" fill-opacity="0"/>
		<path id="Vector" d="M805.039 45.9929L776.804 20.6761C776.212 20.1457 775.277 20.2167 774.798 20.8605C769.079 28.4852 770.631 39.9142 778.608 47.0668C786.586 54.2194 798.113 54.5227 805.073 48.0072C805.659 47.4583 805.631 46.5233 805.039 45.9929Z" fill="#FF6633" fill-opacity="1.000000" fill-rule="nonzero"/>
		<rect id="atom" width="40.674767" height="18.444115" transform="translate(980.480469 245.031372) rotate(-138.119064)" fill="#FFFFFF" fill-opacity="0"/>
		<path id="Vector" d="M951.221 218.796L979.456 244.113C980.048 244.643 980.982 244.572 981.462 243.928C987.181 236.304 985.629 224.875 977.651 217.722C969.674 210.569 958.146 210.266 951.187 216.782C950.601 217.33 950.629 218.265 951.221 218.796Z" fill="#FF6633" fill-opacity="1.000000" fill-rule="nonzero"/>
		<rect id="atom" width="40.674782" height="18.444115" transform="translate(952.649414 70.242950) rotate(39.257843)" fill="#FFFFFF" fill-opacity="0"/>
		<path id="Vector" d="M983.079 95.1119L953.715 71.1138C953.1 70.611 952.169 70.7247 951.72 71.3898C946.356 79.2682 948.43 90.6141 956.726 97.3942C965.021 104.174 976.551 103.95 983.206 97.1224C983.766 96.5474 983.694 95.6147 983.079 95.1119Z" fill="#FF6633" fill-opacity="1.000000" fill-rule="nonzero"/>
		<rect id="atom" width="40.674782" height="18.444120" transform="translate(820.274414 150.698120) rotate(134.771683)" fill="#FFFFFF" fill-opacity="0"/>
		<path id="Vector" d="M792.597 178.597L819.306 151.675C819.865 151.111 819.841 150.173 819.223 149.662C811.896 143.567 800.403 144.54 792.857 152.146C785.312 159.753 784.427 171.25 790.583 178.53C791.102 179.143 792.037 179.161 792.597 178.597Z" fill="#FF6633" fill-opacity="1.000000" fill-rule="nonzero"/>
		<rect id="atom" width="40.674747" height="20.276306" transform="translate(792.701172 75.804932) rotate(83.937752)" fill="#FFFFFF" fill-opacity="0"/>
		<path id="Ellipse 7" d="M786.915 117.323C781.348 117.914 775.872 109.339 774.687 98.1699C773.5 87.0007 777.052 77.4669 782.62 76.8756C788.188 76.2843 793.663 84.8594 794.849 96.0286C796.035 107.198 792.483 116.732 786.915 117.323Z" fill="#FCA21C" fill-opacity="1.000000" fill-rule="nonzero"/>
		<rect id="atom" width="40.674778" height="20.276312" transform="translate(966.785156 178.099243) rotate(-96.062218)" fill="#FFFFFF" fill-opacity="0"/>
		<path id="Ellipse 7" d="M972.571 136.581C978.139 135.99 983.614 144.565 984.8 155.734C985.986 166.903 982.435 176.437 976.866 177.029C971.299 177.62 965.823 169.045 964.638 157.876C963.451 146.706 967.003 137.173 972.571 136.581Z" fill="#FCA21C" fill-opacity="1.000000" fill-rule="nonzero"/>
		<rect id="atom" width="40.674778" height="16.147881" transform="translate(881.558594 59.221191) rotate(-54.290577)" fill="#FFFFFF" fill-opacity="0"/>
		<path id="Ellipse 7" d="M911.855 30.9063C915.477 33.509 913.097 43.0123 906.541 52.1326C899.985 61.2529 891.735 66.5364 888.114 63.9337C884.494 61.3311 886.873 51.8278 893.429 42.7075C899.984 33.5872 908.234 28.3036 911.855 30.9063Z" fill="#FCA21C" fill-opacity="1.000000" fill-rule="nonzero"/>
		<rect id="atom" width="40.674759" height="16.147877" transform="translate(870.407227 146.333557) rotate(96.214798)" fill="#FFFFFF" fill-opacity="0"/>
		<path id="Ellipse 7" d="M857.978 185.895C853.545 185.412 850.937 175.969 852.152 164.803C853.368 153.637 857.948 144.977 862.381 145.46C866.813 145.942 869.422 155.385 868.206 166.551C866.989 177.717 862.41 186.378 857.978 185.895Z" fill="#FCA21C" fill-opacity="1.000000" fill-rule="nonzero"/>
		<rect id="atom" width="40.674763" height="18.566246" transform="translate(824.222656 77.706451) rotate(17.999704)" fill="#FFFFFF" fill-opacity="0"/>
		<path id="Subtract (Stroke)" d="M860.329 90.6266C862.185 93.2202 861.584 96.8214 858.988 98.67C853.144 102.833 845.277 104.069 837.827 101.648C830.377 99.2277 824.741 93.6034 822.459 86.8016C821.445 83.7804 823.076 80.5139 826.101 79.5056C829.126 78.4973 832.399 80.129 833.413 83.1501C834.49 86.3597 837.3 89.3519 841.391 90.6812C845.482 92.0108 849.515 91.2415 852.271 89.2779C854.867 87.4292 858.475 88.0331 860.329 90.6266Z" fill="#70C05B" fill-opacity="1.000000" fill-rule="evenodd"/>
		<rect id="atom" width="40.674755" height="18.566275" transform="translate(938.684570 174.519409) rotate(-162.000244)" fill="#FFFFFF" fill-opacity="0"/>
		<path id="Subtract (Stroke)" d="M902.578 161.599C900.723 159.006 901.323 155.404 903.919 153.556C909.764 149.393 917.63 148.157 925.08 150.577C932.53 152.998 938.166 158.622 940.448 165.424C941.462 168.445 939.831 171.712 936.807 172.72C933.781 173.729 930.508 172.097 929.494 169.076C928.417 165.866 925.607 162.874 921.517 161.545C917.425 160.215 913.393 160.984 910.636 162.948C908.04 164.797 904.433 164.193 902.578 161.599Z" fill="#70C05B" fill-opacity="1.000000" fill-rule="evenodd"/>
		<rect id="atom" width="40.674740" height="18.566246" transform="translate(986.881836 52.838867) rotate(-135.627472)" fill="#FFFFFF" fill-opacity="0"/>
		<path id="Subtract (Stroke)" d="M960.272 25.2243C959.763 22.0768 961.9 19.1172 965.047 18.6139C972.133 17.4806 979.729 19.8674 985.328 25.3456C990.928 30.8238 993.479 38.3662 992.502 45.4738C992.068 48.6308 989.156 50.8331 985.998 50.3928C982.841 49.9524 980.632 47.0363 981.066 43.8793C981.527 40.5253 980.339 36.5966 977.265 33.5884C974.188 30.5793 970.235 29.4777 966.893 30.0123C963.746 30.5155 960.782 28.3719 960.272 25.2243Z" fill="#70C05B" fill-opacity="1.000000" fill-rule="evenodd"/>
		<rect id="atom" width="40.674770" height="18.566246" transform="translate(832.963867 219.219391) rotate(8.575407)" fill="#FFFFFF" fill-opacity="0"/>
		<path id="Subtract (Stroke)" d="M870.699 226.053C872.953 228.308 872.951 231.959 870.692 234.207C865.608 239.271 858.051 241.779 850.305 240.611C842.559 239.442 836.078 234.817 832.713 228.481C831.219 225.666 832.292 222.177 835.111 220.687C837.93 219.197 841.427 220.27 842.922 223.085C844.51 226.075 847.771 228.566 852.024 229.208C856.279 229.849 860.131 228.43 862.528 226.042C864.786 223.793 868.444 223.798 870.699 226.053Z" fill="#70C05B" fill-opacity="1.000000" fill-rule="evenodd"/>
		<rect id="atom" width="38.353981" height="18.199821" transform="translate(834.001953 25.900360) rotate(-33.850700)" fill="#FFFFFF" fill-opacity="0"/>
		<path id="Rectangle 6255" d="M836.724 29.958C835.221 27.717 835.818 24.6819 838.06 23.1788L861.797 7.25757C864.038 5.75452 867.073 6.35269 868.576 8.59369L873.271 15.5931C874.774 17.8341 874.176 20.8693 871.935 22.3724L848.197 38.2936C845.956 39.7967 842.921 39.1985 841.418 36.9575L836.724 29.958Z" fill="#1CB9FC" fill-opacity="1.000000" fill-rule="nonzero"/>
		<rect id="atom" width="38.353954" height="18.199797" transform="translate(889.315430 198.717346) rotate(-12.315752)" fill="#FFFFFF" fill-opacity="0"/>
		<path id="Rectangle 6255" d="M890.357 203.491C889.782 200.854 891.452 198.251 894.089 197.675L922.014 191.579C924.649 191.003 927.253 192.674 927.829 195.31L929.627 203.544C930.202 206.18 928.531 208.784 925.896 209.36L897.971 215.456C895.335 216.032 892.73 214.361 892.155 211.725L890.357 203.491Z" fill="#1CB9FC" fill-opacity="1.000000" fill-rule="nonzero"/>
		<rect id="atom" width="38.353992" height="18.199825" transform="translate(914.850586 128.393707) rotate(-131.732651)" fill="#FFFFFF" fill-opacity="0"/>
		<path id="Rectangle 6255" d="M918.497 125.141C916.483 126.938 913.395 126.761 911.599 124.748L892.572 103.418C890.776 101.404 890.952 98.3156 892.966 96.5194L899.256 90.9092C901.27 89.113 904.358 89.2893 906.154 91.303L925.18 112.633C926.977 114.646 926.8 117.735 924.786 119.531L918.497 125.141Z" fill="#1CB9FC" fill-opacity="1.000000" fill-rule="nonzero"/>
		<rect id="atom" width="38.353916" height="18.199818" transform="translate(790.474609 198.731323) rotate(80.259499)" fill="#FFFFFF" fill-opacity="0"/>
		<path id="Rectangle 6255" d="M785.659 199.558C788.318 199.101 790.845 200.887 791.301 203.547L796.137 231.717C796.594 234.376 794.808 236.902 792.148 237.359L783.842 238.785C781.182 239.241 778.656 237.456 778.199 234.796L773.364 206.626C772.907 203.966 774.693 201.44 777.353 200.984L785.659 199.558Z" fill="#1CB9FC" fill-opacity="1.000000" fill-rule="nonzero"/>
		<rect id="pattern2" width="252.000000" height="252.000000" transform="translate(1008.000000 0.000000)" fill="#FFFFFF" fill-opacity="0"/>
		<rect id="atom" width="40.674759" height="18.444111" transform="translate(1027.779297 19.757446) rotate(41.880878)" fill="#FFFFFF" fill-opacity="0"/>
		<path id="Vector" d="M1057.04 45.9929L1028.8 20.6761C1028.21 20.1457 1027.28 20.2167 1026.8 20.8605C1021.08 28.4852 1022.63 39.9142 1030.61 47.0668C1038.59 54.2194 1050.11 54.5227 1057.07 48.0072C1057.66 47.4583 1057.63 46.5233 1057.04 45.9929Z" fill="#FF6633" fill-opacity="1.000000" fill-rule="nonzero"/>
		<rect id="atom" width="40.674767" height="18.444115" transform="translate(1232.480469 245.031372) rotate(-138.119064)" fill="#FFFFFF" fill-opacity="0"/>
		<path id="Vector" d="M1203.22 218.796L1231.46 244.113C1232.05 244.643 1232.98 244.572 1233.46 243.928C1239.18 236.304 1237.63 224.875 1229.65 217.722C1221.67 210.569 1210.15 210.266 1203.19 216.782C1202.6 217.33 1202.63 218.265 1203.22 218.796Z" fill="#FF6633" fill-opacity="1.000000" fill-rule="nonzero"/>
		<rect id="atom" width="40.674782" height="18.444115" transform="translate(1204.649414 70.242950) rotate(39.257843)" fill="#FFFFFF" fill-opacity="0"/>
		<path id="Vector" d="M1235.08 95.1119L1205.71 71.1138C1205.1 70.611 1204.17 70.7247 1203.72 71.3898C1198.36 79.2682 1200.43 90.6141 1208.73 97.3942C1217.02 104.174 1228.55 103.95 1235.21 97.1224C1235.77 96.5474 1235.69 95.6147 1235.08 95.1119Z" fill="#FF6633" fill-opacity="1.000000" fill-rule="nonzero"/>
		<rect id="atom" width="40.674782" height="18.444120" transform="translate(1072.275391 150.698120) rotate(134.771683)" fill="#FFFFFF" fill-opacity="0"/>
		<path id="Vector" d="M1044.6 178.597L1071.31 151.675C1071.87 151.111 1071.84 150.173 1071.22 149.662C1063.9 143.567 1052.4 144.54 1044.86 152.146C1037.31 159.753 1036.43 171.25 1042.58 178.53C1043.1 179.143 1044.04 179.161 1044.6 178.597Z" fill="#FF6633" fill-opacity="1.000000" fill-rule="nonzero"/>
		<rect id="atom" width="40.674747" height="20.276306" transform="translate(1044.701172 75.804932) rotate(83.937752)" fill="#FFFFFF" fill-opacity="0"/>
		<path id="Ellipse 7" d="M1038.92 117.323C1033.35 117.914 1027.87 109.339 1026.69 98.1699C1025.5 87.0007 1029.05 77.4669 1034.62 76.8756C1040.19 76.2843 1045.66 84.8594 1046.85 96.0286C1048.04 107.198 1044.48 116.732 1038.92 117.323Z" fill="#FCA21C" fill-opacity="1.000000" fill-rule="nonzero"/>
		<rect id="atom" width="40.674778" height="20.276312" transform="translate(1218.785156 178.099243) rotate(-96.062218)" fill="#FFFFFF" fill-opacity="0"/>
		<path id="Ellipse 7" d="M1224.57 136.581C1230.14 135.99 1235.61 144.565 1236.8 155.734C1237.99 166.903 1234.43 176.437 1228.87 177.029C1223.3 177.62 1217.82 169.045 1216.64 157.876C1215.45 146.706 1219 137.173 1224.57 136.581Z" fill="#FCA21C" fill-opacity="1.000000" fill-rule="nonzero"/>
		<rect id="atom" width="40.674778" height="16.147881" transform="translate(1133.558594 59.221191) rotate(-54.290577)" fill="#FFFFFF" fill-opacity="0"/>
		<path id="Ellipse 7" d="M1163.86 30.9063C1167.48 33.509 1165.1 43.0123 1158.54 52.1326C1151.99 61.2529 1143.74 66.5364 1140.11 63.9337C1136.49 61.3311 1138.87 51.8278 1145.43 42.7075C1151.98 33.5872 1160.23 28.3036 1163.86 30.9063Z" fill="#FCA21C" fill-opacity="1.000000" fill-rule="nonzero"/>
		<rect id="atom" width="40.674759" height="16.147877" transform="translate(1122.407227 146.333557) rotate(96.214798)" fill="#FFFFFF" fill-opacity="0"/>
		<path id="Ellipse 7" d="M1109.98 185.895C1105.54 185.412 1102.94 175.969 1104.15 164.803C1105.37 153.637 1109.95 144.977 1114.38 145.46C1118.81 145.942 1121.42 155.385 1120.21 166.551C1118.99 177.717 1114.41 186.378 1109.98 185.895Z" fill="#FCA21C" fill-opacity="1.000000" fill-rule="nonzero"/>
		<rect id="atom" width="40.674763" height="18.566246" transform="translate(1076.222656 77.706451) rotate(17.999704)" fill="#FFFFFF" fill-opacity="0"/>
		<path id="Subtract (Stroke)" d="M1112.33 90.6266C1114.18 93.2202 1113.58 96.8214 1110.99 98.67C1105.14 102.833 1097.28 104.069 1089.83 101.648C1082.38 99.2277 1076.74 93.6034 1074.46 86.8016C1073.45 83.7804 1075.08 80.5139 1078.1 79.5056C1081.13 78.4973 1084.4 80.129 1085.41 83.1501C1086.49 86.3597 1089.3 89.3519 1093.39 90.6812C1097.48 92.0108 1101.51 91.2415 1104.27 89.2779C1106.87 87.4292 1110.47 88.0331 1112.33 90.6266Z" fill="#70C05B" fill-opacity="1.000000" fill-rule="evenodd"/>
		<rect id="atom" width="40.674755" height="18.566275" transform="translate(1190.684570 174.519409) rotate(-162.000244)" fill="#FFFFFF" fill-opacity="0"/>
		<path id="Subtract (Stroke)" d="M1154.58 161.599C1152.72 159.006 1153.32 155.404 1155.92 153.556C1161.76 149.393 1169.63 148.157 1177.08 150.577C1184.53 152.998 1190.17 158.622 1192.45 165.424C1193.46 168.445 1191.83 171.712 1188.81 172.72C1185.78 173.729 1182.51 172.097 1181.49 169.076C1180.42 165.866 1177.61 162.874 1173.52 161.545C1169.42 160.215 1165.39 160.984 1162.64 162.948C1160.04 164.797 1156.43 164.193 1154.58 161.599Z" fill="#70C05B" fill-opacity="1.000000" fill-rule="evenodd"/>
		<rect id="atom" width="40.674740" height="18.566246" transform="translate(1238.881836 52.838867) rotate(-135.627472)" fill="#FFFFFF" fill-opacity="0"/>
		<path id="Subtract (Stroke)" d="M1212.27 25.2243C1211.76 22.0768 1213.9 19.1172 1217.05 18.6139C1224.13 17.4806 1231.73 19.8674 1237.33 25.3456C1242.93 30.8238 1245.48 38.3662 1244.5 45.4738C1244.07 48.6308 1241.16 50.8331 1238 50.3928C1234.84 49.9524 1232.63 47.0363 1233.07 43.8793C1233.53 40.5253 1232.34 36.5966 1229.26 33.5884C1226.19 30.5793 1222.24 29.4777 1218.89 30.0123C1215.75 30.5155 1212.78 28.3719 1212.27 25.2243Z" fill="#70C05B" fill-opacity="1.000000" fill-rule="evenodd"/>
		<rect id="atom" width="40.674770" height="18.566246" transform="translate(1084.963867 219.219391) rotate(8.575407)" fill="#FFFFFF" fill-opacity="0"/>
		<path id="Subtract (Stroke)" d="M1122.7 226.053C1124.95 228.308 1124.95 231.959 1122.69 234.207C1117.61 239.271 1110.05 241.779 1102.3 240.611C1094.56 239.442 1088.08 234.817 1084.71 228.481C1083.22 225.666 1084.29 222.177 1087.11 220.687C1089.93 219.197 1093.43 220.27 1094.92 223.085C1096.51 226.075 1099.77 228.566 1104.02 229.208C1108.28 229.849 1112.13 228.43 1114.53 226.042C1116.79 223.793 1120.44 223.798 1122.7 226.053Z" fill="#70C05B" fill-opacity="1.000000" fill-rule="evenodd"/>
		<rect id="atom" width="38.353981" height="18.199821" transform="translate(1086.001953 25.900360) rotate(-33.850700)" fill="#FFFFFF" fill-opacity="0"/>
		<path id="Rectangle 6255" d="M1088.72 29.958C1087.22 27.717 1087.82 24.6819 1090.06 23.1788L1113.8 7.25757C1116.04 5.75452 1119.07 6.35269 1120.58 8.59369L1125.27 15.5931C1126.77 17.8341 1126.18 20.8693 1123.93 22.3724L1100.2 38.2936C1097.96 39.7967 1094.92 39.1985 1093.42 36.9575L1088.72 29.958Z" fill="#1CB9FC" fill-opacity="1.000000" fill-rule="nonzero"/>
		<rect id="atom" width="38.353954" height="18.199797" transform="translate(1141.315430 198.717346) rotate(-12.315752)" fill="#FFFFFF" fill-opacity="0"/>
		<path id="Rectangle 6255" d="M1142.36 203.491C1141.78 200.854 1143.45 198.251 1146.09 197.675L1174.01 191.579C1176.65 191.003 1179.25 192.674 1179.83 195.31L1181.63 203.544C1182.2 206.18 1180.53 208.784 1177.9 209.36L1149.97 215.456C1147.33 216.032 1144.73 214.361 1144.16 211.725L1142.36 203.491Z" fill="#1CB9FC" fill-opacity="1.000000" fill-rule="nonzero"/>
		<rect id="atom" width="38.353992" height="18.199825" transform="translate(1166.849609 128.393707) rotate(-131.732651)" fill="#FFFFFF" fill-opacity="0"/>
		<path id="Rectangle 6255" d="M1170.5 125.141C1168.48 126.938 1165.39 126.761 1163.6 124.748L1144.57 103.418C1142.78 101.404 1142.95 98.3156 1144.96 96.5194L1151.25 90.9092C1153.27 89.113 1156.36 89.2893 1158.15 91.303L1177.18 112.633C1178.98 114.646 1178.8 117.735 1176.79 119.531L1170.5 125.141Z" fill="#1CB9FC" fill-opacity="1.000000" fill-rule="nonzero"/>
		<rect id="atom" width="38.353916" height="18.199818" transform="translate(1042.474609 198.731323) rotate(80.259499)" fill="#FFFFFF" fill-opacity="0"/>
		<path id="Rectangle 6255" d="M1037.66 199.558C1040.32 199.101 1042.84 200.887 1043.3 203.547L1048.14 231.717C1048.59 234.376 1046.81 236.902 1044.15 237.359L1035.84 238.785C1033.18 239.241 1030.66 237.456 1030.2 234.796L1025.36 206.626C1024.91 203.966 1026.69 201.44 1029.35 200.984L1037.66 199.558Z" fill="#1CB9FC" fill-opacity="1.000000" fill-rule="nonzero"/>
		<rect id="pattern2" width="252.000000" height="252.000000" transform="translate(1260.000000 0.000000)" fill="#FFFFFF" fill-opacity="0"/>
		<rect id="atom" width="40.674759" height="18.444111" transform="translate(1279.779297 19.757446) rotate(41.880878)" fill="#FFFFFF" fill-opacity="0"/>
		<path id="Vector" d="M1309.04 45.9929L1280.8 20.6761C1280.21 20.1457 1279.28 20.2167 1278.8 20.8605C1273.08 28.4852 1274.63 39.9142 1282.61 47.0668C1290.59 54.2194 1302.11 54.5227 1309.07 48.0072C1309.66 47.4583 1309.63 46.5233 1309.04 45.9929Z" fill="#FF6633" fill-opacity="1.000000" fill-rule="nonzero"/>
		<rect id="atom" width="40.674767" height="18.444115" transform="translate(1484.480469 245.031372) rotate(-138.119064)" fill="#FFFFFF" fill-opacity="0"/>
		<path id="Vector" d="M1455.22 218.796L1483.46 244.113C1484.05 244.643 1484.98 244.572 1485.46 243.928C1491.18 236.304 1489.63 224.875 1481.65 217.722C1473.67 210.569 1462.15 210.266 1455.19 216.782C1454.6 217.33 1454.63 218.265 1455.22 218.796Z" fill="#FF6633" fill-opacity="1.000000" fill-rule="nonzero"/>
		<rect id="atom" width="40.674782" height="18.444115" transform="translate(1456.649414 70.242950) rotate(39.257843)" fill="#FFFFFF" fill-opacity="0"/>
		<path id="Vector" d="M1487.08 95.1119L1457.71 71.1138C1457.1 70.611 1456.17 70.7247 1455.72 71.3898C1450.36 79.2682 1452.43 90.6141 1460.73 97.3942C1469.02 104.174 1480.55 103.95 1487.21 97.1224C1487.77 96.5474 1487.69 95.6147 1487.08 95.1119Z" fill="#FF6633" fill-opacity="1.000000" fill-rule="nonzero"/>
		<rect id="atom" width="40.674782" height="18.444120" transform="translate(1324.275391 150.698120) rotate(134.771683)" fill="#FFFFFF" fill-opacity="0"/>
		<path id="Vector" d="M1296.6 178.597L1323.31 151.675C1323.87 151.111 1323.84 150.173 1323.22 149.662C1315.9 143.567 1304.4 144.54 1296.86 152.146C1289.31 159.753 1288.43 171.25 1294.58 178.53C1295.1 179.143 1296.04 179.161 1296.6 178.597Z" fill="#FF6633" fill-opacity="1.000000" fill-rule="nonzero"/>
		<rect id="atom" width="40.674747" height="20.276306" transform="translate(1296.701172 75.804932) rotate(83.937752)" fill="#FFFFFF" fill-opacity="0"/>
		<path id="Ellipse 7" d="M1290.92 117.323C1285.35 117.914 1279.87 109.339 1278.69 98.1699C1277.5 87.0007 1281.05 77.4669 1286.62 76.8756C1292.19 76.2843 1297.66 84.8594 1298.85 96.0286C1300.04 107.198 1296.48 116.732 1290.92 117.323Z" fill="#FCA21C" fill-opacity="1.000000" fill-rule="nonzero"/>
		<rect id="atom" width="40.674778" height="20.276312" transform="translate(1470.785156 178.099243) rotate(-96.062218)" fill="#FFFFFF" fill-opacity="0"/>
		<path id="Ellipse 7" d="M1476.57 136.581C1482.14 135.99 1487.61 144.565 1488.8 155.734C1489.99 166.903 1486.43 176.437 1480.87 177.029C1475.3 177.62 1469.82 169.045 1468.64 157.876C1467.45 146.706 1471 137.173 1476.57 136.581Z" fill="#FCA21C" fill-opacity="1.000000" fill-rule="nonzero"/>
		<rect id="atom" width="40.674778" height="16.147881" transform="translate(1385.558594 59.221191) rotate(-54.290577)" fill="#FFFFFF" fill-opacity="0"/>
		<path id="Ellipse 7" d="M1415.86 30.9063C1419.48 33.509 1417.1 43.0123 1410.54 52.1326C1403.99 61.2529 1395.74 66.5364 1392.11 63.9337C1388.49 61.3311 1390.87 51.8278 1397.43 42.7075C1403.98 33.5872 1412.23 28.3036 1415.86 30.9063Z" fill="#FCA21C" fill-opacity="1.000000" fill-rule="nonzero"/>
		<rect id="atom" width="40.674759" height="16.147877" transform="translate(1374.407227 146.333557) rotate(96.214798)" fill="#FFFFFF" fill-opacity="0"/>
		<path id="Ellipse 7" d="M1361.98 185.895C1357.54 185.412 1354.94 175.969 1356.15 164.803C1357.37 153.637 1361.95 144.977 1366.38 145.46C1370.81 145.942 1373.42 155.385 1372.21 166.551C1370.99 177.717 1366.41 186.378 1361.98 185.895Z" fill="#FCA21C" fill-opacity="1.000000" fill-rule="nonzero"/>
		<rect id="atom" width="40.674763" height="18.566246" transform="translate(1328.222656 77.706451) rotate(17.999704)" fill="#FFFFFF" fill-opacity="0"/>
		<path id="Subtract (Stroke)" d="M1364.33 90.6266C1366.18 93.2202 1365.58 96.8214 1362.99 98.67C1357.14 102.833 1349.28 104.069 1341.83 101.648C1334.38 99.2277 1328.74 93.6034 1326.46 86.8016C1325.45 83.7804 1327.08 80.5139 1330.1 79.5056C1333.13 78.4973 1336.4 80.129 1337.41 83.1501C1338.49 86.3597 1341.3 89.3519 1345.39 90.6812C1349.48 92.0108 1353.51 91.2415 1356.27 89.2779C1358.87 87.4292 1362.47 88.0331 1364.33 90.6266Z" fill="#70C05B" fill-opacity="1.000000" fill-rule="evenodd"/>
		<rect id="atom" width="40.674755" height="18.566275" transform="translate(1442.684570 174.519409) rotate(-162.000244)" fill="#FFFFFF" fill-opacity="0"/>
		<path id="Subtract (Stroke)" d="M1406.58 161.599C1404.72 159.006 1405.32 155.404 1407.92 153.556C1413.76 149.393 1421.63 148.157 1429.08 150.577C1436.53 152.998 1442.17 158.622 1444.45 165.424C1445.46 168.445 1443.83 171.712 1440.81 172.72C1437.78 173.729 1434.51 172.097 1433.49 169.076C1432.42 165.866 1429.61 162.874 1425.52 161.545C1421.42 160.215 1417.39 160.984 1414.64 162.948C1412.04 164.797 1408.43 164.193 1406.58 161.599Z" fill="#70C05B" fill-opacity="1.000000" fill-rule="evenodd"/>
		<rect id="atom" width="40.674740" height="18.566246" transform="translate(1490.881836 52.838867) rotate(-135.627472)" fill="#FFFFFF" fill-opacity="0"/>
		<path id="Subtract (Stroke)" d="M1464.27 25.2243C1463.76 22.0768 1465.9 19.1172 1469.05 18.6139C1476.13 17.4806 1483.73 19.8674 1489.33 25.3456C1494.93 30.8238 1497.48 38.3662 1496.5 45.4738C1496.07 48.6308 1493.16 50.8331 1490 50.3928C1486.84 49.9524 1484.63 47.0363 1485.07 43.8793C1485.53 40.5253 1484.34 36.5966 1481.26 33.5884C1478.19 30.5793 1474.24 29.4777 1470.89 30.0123C1467.75 30.5155 1464.78 28.3719 1464.27 25.2243Z" fill="#70C05B" fill-opacity="1.000000" fill-rule="evenodd"/>
		<rect id="atom" width="40.674770" height="18.566246" transform="translate(1336.963867 219.219391) rotate(8.575407)" fill="#FFFFFF" fill-opacity="0"/>
		<path id="Subtract (Stroke)" d="M1374.7 226.053C1376.95 228.308 1376.95 231.959 1374.69 234.207C1369.61 239.271 1362.05 241.779 1354.3 240.611C1346.56 239.442 1340.08 234.817 1336.71 228.481C1335.22 225.666 1336.29 222.177 1339.11 220.687C1341.93 219.197 1345.43 220.27 1346.92 223.085C1348.51 226.075 1351.77 228.566 1356.02 229.208C1360.28 229.849 1364.13 228.43 1366.53 226.042C1368.79 223.793 1372.44 223.798 1374.7 226.053Z" fill="#70C05B" fill-opacity="1.000000" fill-rule="evenodd"/>
		<rect id="atom" width="38.353981" height="18.199821" transform="translate(1338.001953 25.900360) rotate(-33.850700)" fill="#FFFFFF" fill-opacity="0"/>
		<path id="Rectangle 6255" d="M1340.72 29.958C1339.22 27.717 1339.82 24.6819 1342.06 23.1788L1365.8 7.25757C1368.04 5.75452 1371.07 6.35269 1372.58 8.59369L1377.27 15.5931C1378.77 17.8341 1378.18 20.8693 1375.93 22.3724L1352.2 38.2936C1349.96 39.7967 1346.92 39.1985 1345.42 36.9575L1340.72 29.958Z" fill="#1CB9FC" fill-opacity="1.000000" fill-rule="nonzero"/>
		<rect id="atom" width="38.353954" height="18.199797" transform="translate(1393.315430 198.717346) rotate(-12.315752)" fill="#FFFFFF" fill-opacity="0"/>
		<path id="Rectangle 6255" d="M1394.36 203.491C1393.78 200.854 1395.45 198.251 1398.09 197.675L1426.01 191.579C1428.65 191.003 1431.25 192.674 1431.83 195.31L1433.63 203.544C1434.2 206.18 1432.53 208.784 1429.9 209.36L1401.97 215.456C1399.33 216.032 1396.73 214.361 1396.16 211.725L1394.36 203.491Z" fill="#1CB9FC" fill-opacity="1.000000" fill-rule="nonzero"/>
		<rect id="atom" width="38.353992" height="18.199825" transform="translate(1418.849609 128.393707) rotate(-131.732651)" fill="#FFFFFF" fill-opacity="0"/>
		<path id="Rectangle 6255" d="M1422.5 125.141C1420.48 126.938 1417.39 126.761 1415.6 124.748L1396.57 103.418C1394.78 101.404 1394.95 98.3156 1396.96 96.5194L1403.25 90.9092C1405.27 89.113 1408.36 89.2893 1410.15 91.303L1429.18 112.633C1430.98 114.646 1430.8 117.735 1428.79 119.531L1422.5 125.141Z" fill="#1CB9FC" fill-opacity="1.000000" fill-rule="nonzero"/>
		<rect id="atom" width="38.353916" height="18.199818" transform="translate(1294.474609 198.731323) rotate(80.259499)" fill="#FFFFFF" fill-opacity="0"/>
		<path id="Rectangle 6255" d="M1289.66 199.558C1292.32 199.101 1294.84 200.887 1295.3 203.547L1300.14 231.717C1300.59 234.376 1298.81 236.902 1296.15 237.359L1287.84 238.785C1285.18 239.241 1282.66 237.456 1282.2 234.796L1277.36 206.626C1276.91 203.966 1278.69 201.44 1281.35 200.984L1289.66 199.558Z" fill="#1CB9FC" fill-opacity="1.000000" fill-rule="nonzero"/>
		<rect id="pattern2" width="252.000000" height="252.000000" transform="translate(1512.000000 0.000000)" fill="#FFFFFF" fill-opacity="0"/>
		<rect id="atom" width="40.674759" height="18.444111" transform="translate(1531.779297 19.757446) rotate(41.880878)" fill="#FFFFFF" fill-opacity="0"/>
		<path id="Vector" d="M1561.04 45.9929L1532.8 20.6761C1532.21 20.1457 1531.28 20.2167 1530.8 20.8605C1525.08 28.4852 1526.63 39.9142 1534.61 47.0668C1542.59 54.2194 1554.11 54.5227 1561.07 48.0072C1561.66 47.4583 1561.63 46.5233 1561.04 45.9929Z" fill="#FF6633" fill-opacity="1.000000" fill-rule="nonzero"/>
		<rect id="atom" width="40.674767" height="18.444115" transform="translate(1736.480469 245.031372) rotate(-138.119064)" fill="#FFFFFF" fill-opacity="0"/>
		<path id="Vector" d="M1707.22 218.796L1735.46 244.113C1736.05 244.643 1736.98 244.572 1737.46 243.928C1743.18 236.304 1741.63 224.875 1733.65 217.722C1725.67 210.569 1714.15 210.266 1707.19 216.782C1706.6 217.33 1706.63 218.265 1707.22 218.796Z" fill="#FF6633" fill-opacity="1.000000" fill-rule="nonzero"/>
		<rect id="atom" width="40.674782" height="18.444115" transform="translate(1708.649414 70.242950) rotate(39.257843)" fill="#FFFFFF" fill-opacity="0"/>
		<path id="Vector" d="M1739.08 95.1119L1709.71 71.1138C1709.1 70.611 1708.17 70.7247 1707.72 71.3898C1702.36 79.2682 1704.43 90.6141 1712.73 97.3942C1721.02 104.174 1732.55 103.95 1739.21 97.1224C1739.77 96.5474 1739.69 95.6147 1739.08 95.1119Z" fill="#FF6633" fill-opacity="1.000000" fill-rule="nonzero"/>
		<rect id="atom" width="40.674782" height="18.444120" transform="translate(1576.275391 150.698120) rotate(134.771683)" fill="#FFFFFF" fill-opacity="0"/>
		<path id="Vector" d="M1548.6 178.597L1575.31 151.675C1575.87 151.111 1575.84 150.173 1575.22 149.662C1567.9 143.567 1556.4 144.54 1548.86 152.146C1541.31 159.753 1540.43 171.25 1546.58 178.53C1547.1 179.143 1548.04 179.161 1548.6 178.597Z" fill="#FF6633" fill-opacity="1.000000" fill-rule="nonzero"/>
		<rect id="atom" width="40.674747" height="20.276306" transform="translate(1548.701172 75.804932) rotate(83.937752)" fill="#FFFFFF" fill-opacity="0"/>
		<path id="Ellipse 7" d="M1542.92 117.323C1537.35 117.914 1531.87 109.339 1530.69 98.1699C1529.5 87.0007 1533.05 77.4669 1538.62 76.8756C1544.19 76.2843 1549.66 84.8594 1550.85 96.0286C1552.04 107.198 1548.48 116.732 1542.92 117.323Z" fill="#FCA21C" fill-opacity="1.000000" fill-rule="nonzero"/>
		<rect id="atom" width="40.674778" height="20.276312" transform="translate(1722.785156 178.099243) rotate(-96.062218)" fill="#FFFFFF" fill-opacity="0"/>
		<path id="Ellipse 7" d="M1728.57 136.581C1734.14 135.99 1739.61 144.565 1740.8 155.734C1741.99 166.903 1738.43 176.437 1732.87 177.029C1727.3 177.62 1721.82 169.045 1720.64 157.876C1719.45 146.706 1723 137.173 1728.57 136.581Z" fill="#FCA21C" fill-opacity="1.000000" fill-rule="nonzero"/>
		<rect id="atom" width="40.674778" height="16.147881" transform="translate(1637.558594 59.221191) rotate(-54.290577)" fill="#FFFFFF" fill-opacity="0"/>
		<path id="Ellipse 7" d="M1667.86 30.9063C1671.48 33.509 1669.1 43.0123 1662.54 52.1326C1655.99 61.2529 1647.74 66.5364 1644.11 63.9337C1640.49 61.3311 1642.87 51.8278 1649.43 42.7075C1655.98 33.5872 1664.23 28.3036 1667.86 30.9063Z" fill="#FCA21C" fill-opacity="1.000000" fill-rule="nonzero"/>
		<rect id="atom" width="40.674759" height="16.147877" transform="translate(1626.407227 146.333557) rotate(96.214798)" fill="#FFFFFF" fill-opacity="0"/>
		<path id="Ellipse 7" d="M1613.98 185.895C1609.54 185.412 1606.94 175.969 1608.15 164.803C1609.37 153.637 1613.95 144.977 1618.38 145.46C1622.81 145.942 1625.42 155.385 1624.21 166.551C1622.99 177.717 1618.41 186.378 1613.98 185.895Z" fill="#FCA21C" fill-opacity="1.000000" fill-rule="nonzero"/>
		<rect id="atom" width="40.674763" height="18.566246" transform="translate(1580.222656 77.706451) rotate(17.999704)" fill="#FFFFFF" fill-opacity="0"/>
		<path id="Subtract (Stroke)" d="M1616.33 90.6266C1618.18 93.2202 1617.58 96.8214 1614.99 98.67C1609.14 102.833 1601.28 104.069 1593.83 101.648C1586.38 99.2277 1580.74 93.6034 1578.46 86.8016C1577.45 83.7804 1579.08 80.5139 1582.1 79.5056C1585.13 78.4973 1588.4 80.129 1589.41 83.1501C1590.49 86.3597 1593.3 89.3519 1597.39 90.6812C1601.48 92.0108 1605.51 91.2415 1608.27 89.2779C1610.87 87.4292 1614.47 88.0331 1616.33 90.6266Z" fill="#70C05B" fill-opacity="1.000000" fill-rule="evenodd"/>
		<rect id="atom" width="40.674755" height="18.566275" transform="translate(1694.684570 174.519409) rotate(-162.000244)" fill="#FFFFFF" fill-opacity="0"/>
		<path id="Subtract (Stroke)" d="M1658.58 161.599C1656.72 159.006 1657.32 155.404 1659.92 153.556C1665.76 149.393 1673.63 148.157 1681.08 150.577C1688.53 152.998 1694.17 158.622 1696.45 165.424C1697.46 168.445 1695.83 171.712 1692.81 172.72C1689.78 173.729 1686.51 172.097 1685.49 169.076C1684.42 165.866 1681.61 162.874 1677.52 161.545C1673.42 160.215 1669.39 160.984 1666.64 162.948C1664.04 164.797 1660.43 164.193 1658.58 161.599Z" fill="#70C05B" fill-opacity="1.000000" fill-rule="evenodd"/>
		<rect id="atom" width="40.674740" height="18.566246" transform="translate(1742.881836 52.838867) rotate(-135.627472)" fill="#FFFFFF" fill-opacity="0"/>
		<path id="Subtract (Stroke)" d="M1716.27 25.2243C1715.76 22.0768 1717.9 19.1172 1721.05 18.6139C1728.13 17.4806 1735.73 19.8674 1741.33 25.3456C1746.93 30.8238 1749.48 38.3662 1748.5 45.4738C1748.07 48.6308 1745.16 50.8331 1742 50.3928C1738.84 49.9524 1736.63 47.0363 1737.07 43.8793C1737.53 40.5253 1736.34 36.5966 1733.26 33.5884C1730.19 30.5793 1726.24 29.4777 1722.89 30.0123C1719.75 30.5155 1716.78 28.3719 1716.27 25.2243Z" fill="#70C05B" fill-opacity="1.000000" fill-rule="evenodd"/>
		<rect id="atom" width="40.674770" height="18.566246" transform="translate(1588.963867 219.219391) rotate(8.575407)" fill="#FFFFFF" fill-opacity="0"/>
		<path id="Subtract (Stroke)" d="M1626.7 226.053C1628.95 228.308 1628.95 231.959 1626.69 234.207C1621.61 239.271 1614.05 241.779 1606.3 240.611C1598.56 239.442 1592.08 234.817 1588.71 228.481C1587.22 225.666 1588.29 222.177 1591.11 220.687C1593.93 219.197 1597.43 220.27 1598.92 223.085C1600.51 226.075 1603.77 228.566 1608.02 229.208C1612.28 229.849 1616.13 228.43 1618.53 226.042C1620.79 223.793 1624.44 223.798 1626.7 226.053Z" fill="#70C05B" fill-opacity="1.000000" fill-rule="evenodd"/>
		<rect id="atom" width="38.353981" height="18.199821" transform="translate(1590.001953 25.900360) rotate(-33.850700)" fill="#FFFFFF" fill-opacity="0"/>
		<path id="Rectangle 6255" d="M1592.72 29.958C1591.22 27.717 1591.82 24.6819 1594.06 23.1788L1617.8 7.25757C1620.04 5.75452 1623.07 6.35269 1624.58 8.59369L1629.27 15.5931C1630.77 17.8341 1630.18 20.8693 1627.93 22.3724L1604.2 38.2936C1601.96 39.7967 1598.92 39.1985 1597.42 36.9575L1592.72 29.958Z" fill="#1CB9FC" fill-opacity="1.000000" fill-rule="nonzero"/>
		<rect id="atom" width="38.353954" height="18.199797" transform="translate(1645.315430 198.717346) rotate(-12.315752)" fill="#FFFFFF" fill-opacity="0"/>
		<path id="Rectangle 6255" d="M1646.36 203.491C1645.78 200.854 1647.45 198.251 1650.09 197.675L1678.01 191.579C1680.65 191.003 1683.25 192.674 1683.83 195.31L1685.63 203.544C1686.2 206.18 1684.53 208.784 1681.9 209.36L1653.97 215.456C1651.33 216.032 1648.73 214.361 1648.16 211.725L1646.36 203.491Z" fill="#1CB9FC" fill-opacity="1.000000" fill-rule="nonzero"/>
		<rect id="atom" width="38.353992" height="18.199825" transform="translate(1670.849609 128.393707) rotate(-131.732651)" fill="#FFFFFF" fill-opacity="0"/>
		<path id="Rectangle 6255" d="M1674.5 125.141C1672.48 126.938 1669.39 126.761 1667.6 124.748L1648.57 103.418C1646.78 101.404 1646.95 98.3156 1648.96 96.5194L1655.25 90.9092C1657.27 89.113 1660.36 89.2893 1662.15 91.303L1681.18 112.633C1682.98 114.646 1682.8 117.735 1680.79 119.531L1674.5 125.141Z" fill="#1CB9FC" fill-opacity="1.000000" fill-rule="nonzero"/>
		<rect id="atom" width="38.353916" height="18.199818" transform="translate(1546.474609 198.731323) rotate(80.259499)" fill="#FFFFFF" fill-opacity="0"/>
		<path id="Rectangle 6255" d="M1541.66 199.558C1544.32 199.101 1546.84 200.887 1547.3 203.547L1552.14 231.717C1552.59 234.376 1550.81 236.902 1548.15 237.359L1539.84 238.785C1537.18 239.241 1534.66 237.456 1534.2 234.796L1529.36 206.626C1528.91 203.966 1530.69 201.44 1533.35 200.984L1541.66 199.558Z" fill="#1CB9FC" fill-opacity="1.000000" fill-rule="nonzero"/>
		<rect id="pattern2" width="252.000000" height="252.000000" transform="translate(1764.000000 0.000000)" fill="#FFFFFF" fill-opacity="0"/>
		<rect id="atom" width="40.674759" height="18.444111" transform="translate(1783.779297 19.757446) rotate(41.880878)" fill="#FFFFFF" fill-opacity="0"/>
		<path id="Vector" d="M1813.04 45.9929L1784.8 20.6761C1784.21 20.1457 1783.28 20.2167 1782.8 20.8605C1777.08 28.4852 1778.63 39.9142 1786.61 47.0668C1794.59 54.2194 1806.11 54.5227 1813.07 48.0072C1813.66 47.4583 1813.63 46.5233 1813.04 45.9929Z" fill="#FF6633" fill-opacity="1.000000" fill-rule="nonzero"/>
		<rect id="atom" width="40.674767" height="18.444115" transform="translate(1988.480469 245.031372) rotate(-138.119064)" fill="#FFFFFF" fill-opacity="0"/>
		<path id="Vector" d="M1959.22 218.796L1987.46 244.113C1988.05 244.643 1988.98 244.572 1989.46 243.928C1995.18 236.304 1993.63 224.875 1985.65 217.722C1977.67 210.569 1966.15 210.266 1959.19 216.782C1958.6 217.33 1958.63 218.265 1959.22 218.796Z" fill="#FF6633" fill-opacity="1.000000" fill-rule="nonzero"/>
		<rect id="atom" width="40.674782" height="18.444115" transform="translate(1960.649414 70.242950) rotate(39.257843)" fill="#FFFFFF" fill-opacity="0"/>
		<path id="Vector" d="M1991.08 95.1119L1961.71 71.1138C1961.1 70.611 1960.17 70.7247 1959.72 71.3898C1954.36 79.2682 1956.43 90.6141 1964.73 97.3942C1973.02 104.174 1984.55 103.95 1991.21 97.1224C1991.77 96.5474 1991.69 95.6147 1991.08 95.1119Z" fill="#FF6633" fill-opacity="1.000000" fill-rule="nonzero"/>
		<rect id="atom" width="40.674782" height="18.444120" transform="translate(1828.275391 150.698120) rotate(134.771683)" fill="#FFFFFF" fill-opacity="0"/>
		<path id="Vector" d="M1800.6 178.597L1827.31 151.675C1827.87 151.111 1827.84 150.173 1827.22 149.662C1819.9 143.567 1808.4 144.54 1800.86 152.146C1793.31 159.753 1792.43 171.25 1798.58 178.53C1799.1 179.143 1800.04 179.161 1800.6 178.597Z" fill="#FF6633" fill-opacity="1.000000" fill-rule="nonzero"/>
		<rect id="atom" width="40.674747" height="20.276306" transform="translate(1800.701172 75.804932) rotate(83.937752)" fill="#FFFFFF" fill-opacity="0"/>
		<path id="Ellipse 7" d="M1794.92 117.323C1789.35 117.914 1783.87 109.339 1782.69 98.1699C1781.5 87.0007 1785.05 77.4669 1790.62 76.8756C1796.19 76.2843 1801.66 84.8594 1802.85 96.0286C1804.04 107.198 1800.48 116.732 1794.92 117.323Z" fill="#FCA21C" fill-opacity="1.000000" fill-rule="nonzero"/>
		<rect id="atom" width="40.674778" height="20.276312" transform="translate(1974.785156 178.099243) rotate(-96.062218)" fill="#FFFFFF" fill-opacity="0"/>
		<path id="Ellipse 7" d="M1980.57 136.581C1986.14 135.99 1991.61 144.565 1992.8 155.734C1993.99 166.903 1990.43 176.437 1984.87 177.029C1979.3 177.62 1973.82 169.045 1972.64 157.876C1971.45 146.706 1975 137.173 1980.57 136.581Z" fill="#FCA21C" fill-opacity="1.000000" fill-rule="nonzero"/>
		<rect id="atom" width="40.674778" height="16.147881" transform="translate(1889.558594 59.221191) rotate(-54.290577)" fill="#FFFFFF" fill-opacity="0"/>
		<path id="Ellipse 7" d="M1919.86 30.9063C1923.48 33.509 1921.1 43.0123 1914.54 52.1326C1907.99 61.2529 1899.74 66.5364 1896.11 63.9337C1892.49 61.3311 1894.87 51.8278 1901.43 42.7075C1907.98 33.5872 1916.23 28.3036 1919.86 30.9063Z" fill="#FCA21C" fill-opacity="1.000000" fill-rule="nonzero"/>
		<rect id="atom" width="40.674759" height="16.147877" transform="translate(1878.407227 146.333557) rotate(96.214798)" fill="#FFFFFF" fill-opacity="0"/>
		<path id="Ellipse 7" d="M1865.98 185.895C1861.54 185.412 1858.94 175.969 1860.15 164.803C1861.37 153.637 1865.95 144.977 1870.38 145.46C1874.81 145.942 1877.42 155.385 1876.21 166.551C1874.99 177.717 1870.41 186.378 1865.98 185.895Z" fill="#FCA21C" fill-opacity="1.000000" fill-rule="nonzero"/>
		<rect id="atom" width="40.674763" height="18.566246" transform="translate(1832.222656 77.706451) rotate(17.999704)" fill="#FFFFFF" fill-opacity="0"/>
		<path id="Subtract (Stroke)" d="M1868.33 90.6266C1870.18 93.2202 1869.58 96.8214 1866.99 98.67C1861.14 102.833 1853.28 104.069 1845.83 101.648C1838.38 99.2277 1832.74 93.6034 1830.46 86.8016C1829.45 83.7804 1831.08 80.5139 1834.1 79.5056C1837.13 78.4973 1840.4 80.129 1841.41 83.1501C1842.49 86.3597 1845.3 89.3519 1849.39 90.6812C1853.48 92.0108 1857.51 91.2415 1860.27 89.2779C1862.87 87.4292 1866.47 88.0331 1868.33 90.6266Z" fill="#70C05B" fill-opacity="1.000000" fill-rule="evenodd"/>
		<rect id="atom" width="40.674755" height="18.566275" transform="translate(1946.684570 174.519409) rotate(-162.000244)" fill="#FFFFFF" fill-opacity="0"/>
		<path id="Subtract (Stroke)" d="M1910.58 161.599C1908.72 159.006 1909.32 155.404 1911.92 153.556C1917.76 149.393 1925.63 148.157 1933.08 150.577C1940.53 152.998 1946.17 158.622 1948.45 165.424C1949.46 168.445 1947.83 171.712 1944.81 172.72C1941.78 173.729 1938.51 172.097 1937.49 169.076C1936.42 165.866 1933.61 162.874 1929.52 161.545C1925.42 160.215 1921.39 160.984 1918.64 162.948C1916.04 164.797 1912.43 164.193 1910.58 161.599Z" fill="#70C05B" fill-opacity="1.000000" fill-rule="evenodd"/>
		<rect id="atom" width="40.674740" height="18.566246" transform="translate(1994.881836 52.838867) rotate(-135.627472)" fill="#FFFFFF" fill-opacity="0"/>
		<path id="Subtract (Stroke)" d="M1968.27 25.2243C1967.76 22.0768 1969.9 19.1172 1973.05 18.6139C1980.13 17.4806 1987.73 19.8674 1993.33 25.3456C1998.93 30.8238 2001.48 38.3662 2000.5 45.4738C2000.07 48.6308 1997.16 50.8331 1994 50.3928C1990.84 49.9524 1988.63 47.0363 1989.07 43.8793C1989.53 40.5253 1988.34 36.5966 1985.26 33.5884C1982.19 30.5793 1978.24 29.4777 1974.89 30.0123C1971.75 30.5155 1968.78 28.3719 1968.27 25.2243Z" fill="#70C05B" fill-opacity="1.000000" fill-rule="evenodd"/>
		<rect id="atom" width="40.674770" height="18.566246" transform="translate(1840.963867 219.219391) rotate(8.575407)" fill="#FFFFFF" fill-opacity="0"/>
		<path id="Subtract (Stroke)" d="M1878.7 226.053C1880.95 228.308 1880.95 231.959 1878.69 234.207C1873.61 239.271 1866.05 241.779 1858.3 240.611C1850.56 239.442 1844.08 234.817 1840.71 228.481C1839.22 225.666 1840.29 222.177 1843.11 220.687C1845.93 219.197 1849.43 220.27 1850.92 223.085C1852.51 226.075 1855.77 228.566 1860.02 229.208C1864.28 229.849 1868.13 228.43 1870.53 226.042C1872.79 223.793 1876.44 223.798 1878.7 226.053Z" fill="#70C05B" fill-opacity="1.000000" fill-rule="evenodd"/>
		<rect id="atom" width="38.353981" height="18.199821" transform="translate(1842.001953 25.900360) rotate(-33.850700)" fill="#FFFFFF" fill-opacity="0"/>
		<path id="Rectangle 6255" d="M1844.72 29.958C1843.22 27.717 1843.82 24.6819 1846.06 23.1788L1869.8 7.25757C1872.04 5.75452 1875.07 6.35269 1876.58 8.59369L1881.27 15.5931C1882.77 17.8341 1882.18 20.8693 1879.93 22.3724L1856.2 38.2936C1853.96 39.7967 1850.92 39.1985 1849.42 36.9575L1844.72 29.958Z" fill="#1CB9FC" fill-opacity="1.000000" fill-rule="nonzero"/>
		<rect id="atom" width="38.353954" height="18.199797" transform="translate(1897.315430 198.717346) rotate(-12.315752)" fill="#FFFFFF" fill-opacity="0"/>
		<path id="Rectangle 6255" d="M1898.36 203.491C1897.78 200.854 1899.45 198.251 1902.09 197.675L1930.01 191.579C1932.65 191.003 1935.25 192.674 1935.83 195.31L1937.63 203.544C1938.2 206.18 1936.53 208.784 1933.9 209.36L1905.97 215.456C1903.33 216.032 1900.73 214.361 1900.16 211.725L1898.36 203.491Z" fill="#1CB9FC" fill-opacity="1.000000" fill-rule="nonzero"/>
		<rect id="atom" width="38.353992" height="18.199825" transform="translate(1922.849609 128.393707) rotate(-131.732651)" fill="#FFFFFF" fill-opacity="0"/>
		<path id="Rectangle 6255" d="M1926.5 125.141C1924.48 126.938 1921.39 126.761 1919.6 124.748L1900.57 103.418C1898.78 101.404 1898.95 98.3156 1900.96 96.5194L1907.25 90.9092C1909.27 89.113 1912.36 89.2893 1914.15 91.303L1933.18 112.633C1934.98 114.646 1934.8 117.735 1932.79 119.531L1926.5 125.141Z" fill="#1CB9FC" fill-opacity="1.000000" fill-rule="nonzero"/>
		<rect id="atom" width="38.353916" height="18.199818" transform="translate(1798.474609 198.731323) rotate(80.259499)" fill="#FFFFFF" fill-opacity="0"/>
		<path id="Rectangle 6255" d="M1793.66 199.558C1796.32 199.101 1798.84 200.887 1799.3 203.547L1804.14 231.717C1804.59 234.376 1802.81 236.902 1800.15 237.359L1791.84 238.785C1789.18 239.241 1786.66 237.456 1786.2 234.796L1781.36 206.626C1780.91 203.966 1782.69 201.44 1785.35 200.984L1793.66 199.558Z" fill="#1CB9FC" fill-opacity="1.000000" fill-rule="nonzero"/>
	</g>
</svg>
